<svg xmlns="http://www.w3.org/2000/svg" width="408" height="408" viewBox="0, 0, 408, 408"><text transform="rotate(-8.11 395.22 -788.632)"><tspan x="-61.71" y="17.709" font-family="Arial-Black" font-size="50" fill="#88E205">SEA</tspan></text><text transform="rotate(-8.11 472.197 -1780.19)"><tspan x="-70.936" y="13.585" font-family="Arial-Black" font-size="40" fill="#204168">TOWN</tspan></text><text transform="rotate(-8.11 2525.792 -317.74)"><tspan x="-61.71" y="17.709" font-family="Arial-Black" font-size="50" fill="#88E205">SEA</tspan></text><text transform="rotate(-8.11 2608.711 -1683.098)"><tspan x="-135.614" y="11.082" font-family="Arial-Black" font-size="40" fill="#204168">MONSTERS</tspan></text><path d="M94.392 258.608c-12.204 15.018-2.762 29.756-3.748 41.111-.285 3.291-3.502 2.74-6.762 2.74-21.919 0 8.897-76.1 10.51-43.851" fill="#5F5F5F"/><path d="M93.886 258.425l-.556.703-1.066 1.467-.958 1.483-.837 1.479-.722 1.469-.614 1.459-.512 1.448-.417 1.434-.33 1.422-.248 1.41-.175 1.396-.107 1.384-.047 1.372.008 1.359.056 1.347.098 1.334.135 1.321.164 1.307.289 1.935.435 2.531.449 2.472.414 2.406.26 1.757.138 1.146.104 1.127.063 1.106.017 1.084-.034 1.059-.038.513.002-.018-.016.151-.04.255-.082.324-.139.317-.122.151-.072.027-.075.012-.17.06-.285.084-.376.077-.442.057-.492.035-.528.014-.849-.004-1.193-.023-.615-.006h.002l-.254-.003-.475-.027-.45-.053-.432-.077-.416-.103-.398-.126-.383-.151-.365-.174-.35-.197-.334-.22-.317-.242-.303-.264-.427-.439-.515-.657-.453-.732-.395-.809-.339-.88-.283-.947-.23-1.012-.177-1.07-.127-1.126-.078-1.177-.031-1.224.015-1.266.058-1.305.101-1.339.141-1.368.179-1.394.216-1.416.251-1.432.438-2.174.688-2.916.793-2.903.653-2.146.461-1.409.479-1.39.495-1.364.508-1.334.521-1.298.53-1.259.539-1.214.544-1.166.547-1.113.548-1.054.547-.991.543-.923.535-.848.523-.769.508-.683.486-.589.456-.49.418-.384.371-.279.323-.18.288-.1.278-.035.291.033.308.117.317.222.231.239.152.197.152.234.147.268.14.302.135.336.128.371.12.406.112.443.104.479.096.516.086.553.078.592.067.629.058.669.048.708.02.367c.018.338.386.388.823.112.436-.277.775-.775.756-1.113l-.02-.379-.049-.725-.06-.686-.07-.649-.08-.611-.09-.575-.1-.538-.11-.503-.119-.468-.129-.434-.138-.4-.148-.366-.158-.334-.167-.302-.177-.27-.192-.243-.311-.303-.452-.287-.511-.154-.574-.01-.629.143-.659.289-.658.412-.642.509-.622.59-.607.663-.597.733-.592.801-.588.867-.586.932-.583.994-.58 1.053-.576 1.108-.57 1.161-.564 1.21-.556 1.255-.545 1.295-.535 1.334-.521 1.366-.506 1.395-.489 1.421-.472 1.445-.668 2.197-.807 2.96-.7 2.966-.444 2.211-.256 1.462-.22 1.446-.183 1.426-.144 1.401-.103 1.373-.059 1.34-.015 1.304.033 1.262.081 1.217.133 1.167.186 1.114.241 1.056.299.994.359.927.422.856.486.78.55.697.457.466.329.286.347.262.365.239.384.215.402.19.422.165.442.139.461.112.481.085.502.056.514.029.255.003h.002l.605.006 1.207.023.884.004.577-.017.567-.043.558-.077.559-.129.576-.205.609-.326.613-.483.517-.589.358-.603.226-.582.11-.456.047-.318.016-.152.001-.018.04-.557.035-1.109-.019-1.122-.065-1.137-.106-1.151-.141-1.168-.263-1.774-.415-2.414-.448-2.465-.432-2.514-.287-1.916-.162-1.288-.132-1.297-.097-1.305-.055-1.311-.008-1.318.043-1.324.102-1.326.165-1.33.232-1.331.306-1.331.384-1.331.466-1.328.553-1.326.646-1.324.743-1.323.848-1.323.974-1.346.557-.704c.336-.425.382-.851.102-.952-.279-.101-.777.161-1.113.586"/><path d="M93.152 251.736c-34.345-33.041-11.023-84.683 36.525-86.194 20.279-.644 73.141 34.43 32.858 85.689-3.544 4.51 32.464 3.601 31.758 21.239-.655 16.399-36.746-15.886-37.088-15.886-.242 0 40.917 38.766 30.929 47.09-8.698 7.248-38.013-43.24-38.178-42.982-.425.664 31.483 49.029 21.094 54.828-10.389 5.798-31.724-51.688-31.724-52.171 0 0 18.696 60.023 9.274 59.902-16.309-.209-21.004-58.668-21.112-58.452-.242.483-2.089 58.211-14.411 58.211-14.89 0 2.572-60.869 2.572-61.11 0 0-20.212 53.62-31.564 51.204-11.814-2.514 23.35-52.654 22.867-52.654-.242 0-30.84 39.728-40.746 33.084-9.241-6.198 33.497-36.708 33.497-36.95 0-.241-47.628 32.463-45.641 13.254.724-7.007 36.097-18.426 38.848-18.102z" fill="#A84146"/><path d="M94.21 250.673l-.795-.778-1.518-1.568-1.434-1.59-1.351-1.613-1.269-1.635-1.189-1.654-1.108-1.671-1.03-1.689-.951-1.703-.873-1.716-.796-1.728-.72-1.737-.645-1.746-.57-1.753-.497-1.757-.424-1.761-.352-1.763-.28-1.762-.21-1.761-.141-1.758-.072-1.753-.004-1.745.062-1.738.129-1.727.194-1.715.258-1.702.321-1.686.383-1.669.444-1.65.504-1.629.563-1.607.62-1.582.677-1.557.733-1.529.787-1.501.84-1.469.892-1.438.943-1.405.994-1.372 1.043-1.336 1.093-1.301 1.141-1.265 1.191-1.228 1.239-1.191 1.289-1.152 1.337-1.114 1.388-1.075 1.437-1.033 1.486-.991 1.537-.948 1.586-.903 1.635-.855 1.683-.807 1.732-.755 1.779-.703 1.825-.648 1.871-.591 1.915-.533 1.959-.472 2.002-.409 2.044-.345 2.084-.279 2.124-.21 2.163-.141 1.089-.044-.017.001.481-.009.966.022 1.006.072 1.052.122 1.094.172 1.132.222 1.166.272 1.198.321 1.225.37 1.249.418 1.272.466 1.289.514 1.305.561 1.317.607 1.327.654 1.333.699 1.337.745 1.337.79 1.335.834 1.33.877 1.321.922 1.31.964 1.296 1.007 1.279 1.048 1.26 1.09 1.237 1.132 1.211 1.172 1.182 1.211 1.151 1.252 1.117 1.291 1.08 1.329 1.04 1.367.997 1.405.951 1.442.902 1.479.851 1.514.797 1.55.74 1.585.679 1.62.617 1.653.551 1.687.483 1.719.411 1.752.337 1.783.261 1.813.181 1.844.1 1.874.014 1.903-.073 1.93-.163 1.959-.256 1.985-.351 2.012-.449 2.038-.549 2.063-.652 2.088-.757 2.113-.865 2.137-.976 2.161-1.09 2.186-1.206 2.209-.978 1.664-.688 1.115-.723 1.129-.755 1.136-.787 1.142-.819 1.148-.851 1.155-.885 1.161-.448.575c-.02.025-.04.051-.059.078l-.075.104-.284.481-.198.549-.04.453.073.351.144.28.193.236.236.208.275.191.312.18.349.172.385.166.638.241.967.315 1.09.314 1.198.318 1.292.327 1.374.34 1.443.357 1.497.381 1.538.407 1.565.439 1.579.474 1.578.514 1.564.558 1.536.606 1.493.659 1.436.715 1.367.776.967.622.615.435.592.453.565.472.536.489.505.507.474.527.439.545.404.565.367.585.329.605.288.626.247.646.203.667.159.688.113.71.066.732.017.754-.01.373.001-.027-.022.375-.077.646-.116.539-.146.436-.156.319-.138.191-.091.068h-.049l-.07.01-.158.048-.266.069-.36.059-.435.033-.494-.005-.544-.046-.584-.088-.62-.129-.652-.17-.68-.208-.706-.246-.728-.282-.749-.315-.768-.347-.784-.377-1.206-.619-1.647-.911-1.68-.997-1.7-1.067-1.708-1.124-1.701-1.165-1.682-1.191-1.649-1.203-1.602-1.199-1.544-1.181-1.472-1.147-1.048-.83-.669-.535-.645-.519-.617-.5-.588-.479-.559-.458-.526-.433-.493-.408-.458-.379-.421-.351-.382-.318-.343-.286-.301-.25-.258-.214-.214-.176-.168-.135-.123-.096-.085-.059-.094-.048c-.408-.165-1.154.215-1.667.848-.342.424-.506.873-.427 1.17l.001.007.135.226.119.124.165.168.216.216.266.265.315.312.361.359.406.403.448.447.489.488.527.528.563.567.598.604.629.639.659.672.687.706.713.735.736.765.758.792.777.818.794.842 1.219 1.305 1.666 1.811 1.695 1.879 1.71 1.935 1.706 1.977 1.685 2.008 1.649 2.025 1.593 2.03 1.523 2.022 1.433 2 1.006 1.478.634.971.603.959.569.945.533.929.494.911.455.891.411.87.368.846.32.821.272.793.22.762.168.729.113.693.058.652.002.604-.054.55-.104.484-.144.402-.165.305-.161.199-.148.121-.003-.018.164-.136-.208.159-.174.079-.167.031-.278.035-.374.004-.446-.05-.499-.112-.542-.178-.576-.244-.605-.308-.631-.369-.654-.43-.674-.486-.692-.542-.709-.592-.724-.643-.738-.689-.75-.733-.762-.775-.771-.814-.779-.85-.787-.885-1.193-1.386-1.603-1.943-1.611-2.033-1.609-2.104-1.599-2.155-1.578-2.186-1.55-2.197-1.511-2.188-1.463-2.159-1.407-2.11-1.013-1.539-.652-1-.633-.977-.613-.951-.591-.922-.569-.892-.544-.859-.52-.823-.493-.784-.467-.744-.437-.701-.409-.655-.377-.606-.346-.557-.313-.503-.279-.447-.243-.39-.208-.33-.171-.267-.133-.203-.096-.14-.068-.086-.188-.126c-.422-.147-1.17.25-1.671.888-.221.281-.367.577-.409.831l-.004.024.032.407.094.232.124.253.161.305.199.36.236.417.271.472.305.526.338.577.368.627.398.675.426.721.451.765.475.807.499.846.519.885.538.919.555.954.571.985.585 1.014.598 1.042.915 1.611 1.248 2.223 1.267 2.296 1.271 2.352 1.262 2.391 1.239 2.413 1.203 2.42 1.154 2.409 1.089 2.382.766 1.758.484 1.153.461 1.138.435 1.12.408 1.099.379 1.076.349 1.051.316 1.024.282.994.247.962.209.928.171.89.13.849.087.807.045.759v.708l-.044.651-.088.585-.127.509-.156.416-.167.305-.146.175-.101.064-.088.023.013-.03.151-.084-.245.124-.298.092-.306.035-.383-.009-.442-.07-.485-.142-.518-.217-.543-.292-.562-.364-.579-.435-.593-.504-.604-.568-.614-.631-.624-.69-.63-.747-.638-.8-.643-.851-.647-.899-.652-.945-.654-.986-.986-1.554-1.316-2.194-1.313-2.311-1.304-2.407-1.289-2.482-1.268-2.534-1.241-2.565-1.208-2.572-1.168-2.558-1.124-2.521-1.073-2.463-.767-1.796-.493-1.167-.476-1.14-.46-1.111-.442-1.078-.424-1.043-.405-1.005-.385-.964-.365-.92-.343-.875-.322-.825-.298-.773-.275-.719-.251-.661-.226-.601-.2-.538-.174-.472-.146-.404-.118-.332-.089-.257-.059-.178-.026-.089.009.035-2.336 1.719.003.01.027.086.052.17.077.251.101.329.123.404.145.477.165.548.185.614.203.68.22.74.236.8.251.856.265.91.278.96.29 1.009.301 1.054.311 1.096.319 1.136.326 1.172.502 1.823.685 2.535.697 2.632.698 2.709.693 2.763.677 2.795.654 2.806.622 2.793.582 2.759.532 2.703.362 1.975.221 1.287.204 1.261.186 1.232.167 1.199.146 1.164.125 1.125.103 1.085.079 1.039.055.992.029.942.003.886-.024.829-.052.765-.08.697-.107.621-.131.536-.149.435-.15.311-.115.151-.018-.033.103-.151.083-.106-.082-.026-.062-.011h.059l-.38-.015-.692-.09-.669-.163-.664-.239-.656-.313-.647-.384-.638-.456-.626-.523-.614-.59-.602-.653-.589-.713-.575-.772-.562-.827-.549-.88-.534-.929-.521-.977-.508-1.022-.493-1.063-.48-1.103-.467-1.139-.453-1.172-.44-1.204-.635-1.859-.801-2.561-.75-2.634-.699-2.688-.65-2.72-.603-2.73-.557-2.719-.511-2.686-.467-2.632-.424-2.557-.291-1.854-.181-1.201-.171-1.171-.161-1.138-.152-1.1-.142-1.062-.133-1.021-.124-.975-.115-.929-.105-.879-.098-.827-.088-.772-.08-.714-.072-.653-.064-.591-.056-.525-.048-.456-.041-.386-.033-.313-.026-.238-.02-.162-.015-.098-.063-.176c-.218-.363-.895-.216-1.513.329-.371.327-.653.741-.752 1.106l-.006.021-.045.257-.021.224-.02.276-.023.343-.026.412-.029.48-.033.545-.037.609-.04.671-.045.728-.05.785-.054.838-.059.889-.064.937-.069.982-.075 1.025-.08 1.066-.087 1.103-.092 1.138-.151 1.768-.224 2.455-.252 2.547-.281 2.618-.313 2.668-.345 2.698-.379 2.704-.416 2.691-.452 2.655-.491 2.599-.531 2.519-.425 1.82-.295 1.175-.306 1.147-.317 1.11-.327 1.072-.338 1.029-.347.984-.356.935-.366.882-.372.825-.379.763-.382.695-.381.622-.375.543-.363.457-.342.369-.316.283-.292.209-.284.155-.301.118-.343.087-.396.045-.188.001h.052l-.342-.011-.585-.082-.527-.157-.497-.231-.464-.305-.432-.379-.401-.451-.367-.522-.334-.591-.301-.658-.269-.722-.236-.784-.204-.842-.173-.899-.142-.951-.112-1.003-.084-1.049-.056-1.095-.029-1.136-.003-1.175.022-1.211.045-1.245.068-1.274.09-1.302.11-1.327.129-1.348.228-2.06.362-2.795.418-2.828.467-2.842.506-2.833.536-2.802.556-2.748.569-2.671.571-2.574.424-1.851.279-1.191.275-1.155.269-1.115.262-1.073.255-1.027.245-.978.235-.928.224-.873.212-.817.198-.758.183-.695.168-.63.15-.563.133-.492.113-.419.093-.344.072-.266.05-.187.028-.114.019-.086c.111-.583-.322-.813-.968-.515-.555.257-1.101.831-1.305 1.374l-.004.009-.029.075-.056.15-.085.221-.112.292-.139.358-.164.423-.19.486-.215.545-.238.601-.261.657-.284.709-.306.758-.327.805-.348.849-.367.892-.387.931-.405.968-.424 1.002-.44 1.035-.457 1.063-.472 1.091-.738 1.682-1.033 2.312-1.083 2.373-1.129 2.414-1.169 2.436-1.204 2.436-1.232 2.415-1.255 2.375-1.272 2.313-1.283 2.23-1.286 2.125-1.284 1.998-.949 1.392-.623.871-.623.835-.614.786-.604.735-.592.679-.578.622-.56.56-.54.497-.518.432-.495.367-.47.304-.45.244-.433.187-.425.134-.423.081-.428.027-.435-.034-.198-.039.04.009-.268-.068-.43-.169-.353-.22-.298-.274-.247-.329-.197-.382-.148-.435-.101-.49-.055-.542-.007-.595.038-.646.084-.695.129-.742.171-.788.214-.831.254-.871.294-.91.331-.945.367-.979.4-1.01.433-1.038.464-1.063.492-1.088.518-1.109.826-1.702 1.176-2.318 1.247-2.356 1.304-2.379 1.345-2.384 1.373-2.37 1.385-2.339 1.381-2.289 1.362-2.221.999-1.608.652-1.042.64-1.016.625-.986.607-.955.589-.92.569-.885.545-.847.521-.806.495-.763.466-.718.437-.671.405-.623.371-.571.336-.518.299-.463.261-.407.222-.351.183-.295.146-.245.12-.215.131-.289.029-.683c-.166-.312-.658-.287-1.198.062l-.011.007-.554.47-.201.225-.171.203-.194.234-.226.275-.26.317-.295.36-.329.402-.363.442-.395.481-.427.517-.458.553-.486.585-.516.616-.542.646-.568.673-.593.698-.616.721-.639.743-1 1.151-1.4 1.592-1.468 1.639-1.526 1.672-1.574 1.69-1.615 1.692-1.644 1.677-1.663 1.647-1.673 1.599-1.672 1.536-1.659 1.457-1.638 1.361-1.197.941-.78.586-.778.56-.764.525-.748.489-.733.451-.714.41-.696.37-.675.327-.655.283-.634.239-.611.192-.59.146-.568.099-.546.049h-.526l-.504-.053-.484-.106-.463-.163-.441-.223-.201-.127.022.014-.207-.149-.325-.299-.244-.315-.178-.336-.116-.355-.059-.373-.007-.392.044-.41.091-.43.138-.454.184-.479.231-.505.279-.533.325-.56.372-.587.417-.611.462-.636.505-.657.545-.677.584-.695.62-.711.655-.726 1.048-1.119 1.492-1.521 1.58-1.541 1.656-1.557 1.715-1.56 1.756-1.554 1.777-1.534 1.782-1.506 1.768-1.466 1.737-1.415 1.688-1.355 1.222-.97.79-.621.769-.602.745-.58.719-.557.69-.532.659-.506.627-.479.591-.45.554-.421.515-.39.474-.359.43-.325.386-.291.338-.256.29-.221.242-.186.195-.151.159-.128.175-.152.454-.513c.453-.65.436-1.241-.037-1.319a.684.684 0 0 0-.138-.008h-.008l-.638.209-.25.147-.235.146-.276.176-.328.21-.381.245-.434.279-.486.311-.535.343-.583.372-.629.4-.672.424-.714.449-.752.47-.79.49-.825.508-.857.525-.888.538-.916.55-1.423.844-1.976 1.151-2.045 1.163-2.1 1.16-2.135 1.142-2.153 1.109-2.153 1.06-2.133.996-2.096.915-1.53.622-.996.381-.982.355-.96.324-.935.292-.908.258-.878.222-.847.185-.814.145-.777.105-.739.062-.698.019-.657-.026-.612-.072-.567-.12-.519-.168-.472-.217-.422-.269-.372-.321-.321-.376-.268-.433-.214-.491-.158-.554-.101-.619-.04-.688.023-.759.034-.392-.005.052.023-.165.061-.219.077-.169.097-.165.121-.171.153-.191.193-.216.24-.242.289-.267.338-.29.611-.481.952-.675 1.087-.697 1.22-.721 1.335-.735 1.432-.741 1.515-.742 1.583-.738 1.637-.73 2.533-1.073 3.44-1.368 2.565-.963 1.682-.607 1.65-.577 1.601-.543 1.539-.505 1.465-.464 1.378-.421.967-.285.609-.174.583-.162.552-.149.519-.136.485-.121.449-.108.41-.092.371-.078.327-.062.282-.046.233-.03.177-.013.116.001.008.003a.975.975 0 0 0 .055.002h.241c.524 0 1.267-.531 1.66-1.185.393-.655.287-1.186-.236-1.187h-.242l.055.002-.134-.007-.236.005-.265.023-.298.039-.333.056-.37.07-.405.085-.441.1-.475.114-.509.127-.54.141-.571.155-.6.167-.631.18-.993.293-1.407.429-1.493.474-1.566.514-1.629.552-1.678.587-1.721.621-2.625.986-3.511 1.398-2.594 1.1-1.695.756-1.65.77-1.596.783-1.531.794-1.457.804-1.374.817-1.287.833-1.175.842-.808.645-.519.454-.493.469-.463.486-.428.506-.383.522-.329.53-.262.528-.187.513-.107.45-.023.165a.47.47 0 0 0-.006.051l-.04.49-.021.892.055.817.129.743.201.67.27.597.338.526.401.456.462.387.52.321.573.257.623.195.671.136.715.08.755.026.795-.024.831-.073.864-.118.895-.162.925-.203.952-.242.976-.278.999-.313 1.02-.345 1.038-.376 1.061-.407 1.613-.657 2.18-.953 2.208-1.031 2.218-1.093 2.211-1.139 2.187-1.171 2.146-1.186 2.087-1.187 2.008-1.169 1.445-.858.932-.56.903-.547.871-.533.838-.516.802-.498.765-.477.724-.456.681-.43.637-.405.59-.376.54-.346.488-.313.433-.279.376-.241.314-.202.246-.156.164-.103.019-.016-.5.137h.009l-.176-1.327.439-.491.053-.042-.083.068-.161.125-.224.172-.282.214-.334.253-.385.291-.432.327-.478.361-.52.394-.561.426-.599.456-.634.486-.669.513-.7.539-.729.565-.757.589-.782.612-.806.635-1.248.99-1.721 1.381-1.774 1.447-1.81 1.5-1.83 1.546-1.831 1.582-1.817 1.608-1.785 1.626-1.738 1.635-1.674 1.635-1.586 1.62-1.124 1.201-.721.8-.692.795-.66.788-.627.781-.591.774-.553.765-.513.757-.468.747-.422.736-.37.723-.315.708-.255.689-.191.667-.122.64-.05.608.025.573.1.532.176.491.251.447.327.404.391.352.208.15a.42.42 0 0 0 .022.015l.271.166.547.267.582.196.616.127.648.059.677-.008.703-.071.728-.133.749-.192.768-.247.785-.3.799-.35.812-.397.824-.44.834-.482.842-.521.851-.557.857-.591.864-.624.878-.661 1.318-1.039 1.756-1.462 1.761-1.547 1.757-1.617 1.747-1.671 1.727-1.711 1.7-1.734 1.663-1.744 1.618-1.736 1.563-1.714 1.5-1.677 1.426-1.621 1.017-1.171.651-.757.629-.735.604-.711.578-.685.551-.656.524-.627.494-.594.464-.561.433-.524.4-.486.365-.446.33-.403.293-.358.254-.309.212-.258.166-.2.107-.129h-.005l-.444.357.012-.008-1.197.062.038-.665.074-.144-.037.069-.104.176-.159.257-.207.327-.252.394-.294.455-.333.513-.37.57-.405.623-.438.673-.469.722-.498.768-.525.812-.55.853-.573.893-.595.929-.613.965-.632.996-.647 1.027-.661 1.056-1.014 1.632-1.38 2.251-1.401 2.323-1.407 2.377-1.397 2.413-1.373 2.433-1.334 2.435-1.279 2.419-1.208 2.382-.85 1.752-.538 1.152-.513 1.135-.485 1.115-.456 1.093-.424 1.069-.39 1.044-.354 1.015-.317.985-.277.954-.235.92-.19.883-.143.845-.094.805-.041.761.015.715.074.666.136.613.201.557.27.495.341.43.413.359.488.285.541.204.269.068.04.009.337.054.655.031.686-.065.712-.162.733-.256.744-.344.746-.424.743-.496.735-.559.726-.615.717-.667.709-.715.702-.761.697-.804.693-.845.69-.885.686-.922.69-.968 1.026-1.507 1.35-2.106 1.34-2.215 1.324-2.304 1.306-2.376 1.284-2.428 1.255-2.463 1.223-2.476 1.186-2.471 1.144-2.445 1.095-2.401 1.043-2.335.744-1.696.477-1.102.462-1.074.444-1.044.427-1.012.409-.977.391-.939.371-.9.351-.858.33-.813.309-.765.286-.716.264-.663.241-.608.217-.551.192-.491.167-.429.141-.364.114-.297.086-.227.059-.154.03-.079.004-.01-2.273.858.012-.052-.021.083-.048.179-.071.265-.094.344-.114.422-.133.496-.152.567-.168.635-.185.7-.199.763-.214.823-.225.88-.237.934-.247.986-.257 1.034-.264 1.079-.271 1.124-.276 1.163-.282 1.202-.428 1.867-.575 2.593-.573 2.694-.562 2.772-.54 2.828-.511 2.862-.471 2.874-.424 2.864-.366 2.83-.231 2.086-.131 1.372-.112 1.351-.091 1.328-.07 1.303-.046 1.274-.022 1.243.004 1.209.03 1.172.059 1.133.087 1.092.119 1.046.15 1 .184.949.219.897.255.841.294.783.334.722.376.657.422.59.468.518.518.443.571.364.626.278.683.189.718.093.343.011a.451.451 0 0 0 .052 0l.386-.02.729-.121.752-.241.764-.365.751-.479.716-.571.662-.636.608-.686.56-.727.52-.767.487-.805.461-.847.437-.887.418-.929.4-.97.384-1.009.369-1.049.355-1.084.341-1.12.329-1.153.316-1.183.305-1.216.435-1.869.541-2.566.498-2.636.457-2.688.42-2.718.382-2.728.348-2.718.315-2.686.283-2.634.253-2.56.225-2.466.151-1.775.093-1.143.087-1.108.08-1.07.076-1.03.069-.986.064-.94.06-.892.054-.84.049-.787.045-.731.041-.671.037-.609.033-.544.029-.477.025-.406.022-.331.018-.249.012-.145-.017.046.006-.022-2.265 1.434-.057-.164.009.051.018.15.026.233.033.312.041.386.048.458.056.527.064.593.072.656.081.717.089.775.097.83.107.883.115.933.124.98.133 1.025.143 1.066.153 1.106.162 1.142.172 1.176.182 1.208.292 1.865.427 2.569.469 2.646.514 2.702.56 2.735.607 2.749.656 2.739.705 2.71.757 2.659.809 2.585.642 1.878.446 1.219.459 1.19.474 1.157.489 1.121.503 1.084.519 1.043.534 1 .549.954.565.906.582.855.599.801.616.745.634.686.653.624.672.559.693.491.716.421.739.347.765.269.792.186.803.098.381.016h.059l.369-.027.72-.188.806-.436.749-.643.553-.683.383-.65.278-.636.21-.651.162-.687.122-.73.088-.778.055-.829.024-.878-.003-.928-.031-.975-.056-1.02-.081-1.064-.105-1.105-.127-1.144-.149-1.179-.169-1.213-.187-1.244-.207-1.273-.223-1.299-.364-1.99-.535-2.717-.585-2.771-.624-2.804-.656-2.814-.68-2.803-.694-2.77-.7-2.715-.698-2.638-.686-2.539-.503-1.826-.327-1.175-.32-1.138-.311-1.098-.301-1.056-.291-1.01-.278-.962-.266-.911-.252-.858-.236-.801-.221-.743-.203-.68-.185-.616-.165-.549-.146-.478-.123-.406-.101-.33-.078-.252-.053-.171-.027-.087-.003-.011c-.127-.408-.699-.39-1.313.042-.649.456-1.108 1.207-1.024 1.677v-.001l.017.079.036.12.063.19.092.265.12.337.148.407.174.476.202.541.226.604.252.664.276.721.3.775.322.828.344.876.366.923.386.967.406 1.007.425 1.046.443 1.081.461 1.113.478 1.144.494 1.17.77 1.801 1.076 2.47 1.127 2.529 1.172 2.566 1.212 2.581 1.246 2.575 1.274 2.545 1.296 2.495 1.312 2.422 1.322 2.327 1.327 2.211.995 1.567.662.999.66.957.658.913.655.867.651.817.648.766.642.711.638.653.633.594.628.532.624.467.621.398.619.328.622.252.63.173.649.083.68-.021.73-.15.707-.269.245-.124c.051-.026.101-.054.151-.085l.485-.316.764-.643.632-.721.472-.724.339-.705.241-.698.165-.709.103-.73.048-.758-.003-.791-.05-.824-.094-.859-.138-.893-.177-.925-.217-.957-.253-.987-.289-1.016-.323-1.043-.354-1.067-.384-1.091-.413-1.112-.44-1.132-.465-1.148-.489-1.166-.772-1.771-1.096-2.395-1.159-2.421-1.208-2.43-1.244-2.422-1.266-2.398-1.274-2.358-1.269-2.301-1.25-2.227-.917-1.613-.599-1.044-.586-1.016-.572-.986-.556-.955-.539-.921-.519-.885-.499-.847-.475-.807-.452-.765-.425-.72-.397-.674-.368-.626-.337-.575-.303-.523-.268-.467-.232-.409-.192-.349-.15-.283-.105-.21-.049-.102-.02.208.004-.025-2.08 1.719-.169-.12.031.036.085.124.128.196.168.263.207.328.243.388.278.447.313.503.346.557.378.607.409.656.438.701.467.745.494.786.52.824.546.86.569.894.593.924.614.953.634.979.654 1.002 1.015 1.543 1.411 2.115 1.467 2.165 1.515 2.194 1.555 2.204 1.584 2.194 1.605 2.164 1.618 2.114 1.62 2.045 1.613 1.955 1.201 1.396.794.892.789.86.78.824.772.785.763.745.752.702.741.657.729.609.715.558.703.506.688.451.675.394.661.334.649.271.641.204.637.134.644.054.665-.039.708-.16.764-.32.7-.434.208-.16c.056-.043.111-.088.164-.136l.446-.42.641-.746.485-.753.341-.729.227-.709.136-.703.06-.708-.007-.722-.069-.741-.127-.762-.182-.785-.235-.807-.285-.829-.333-.851-.379-.873-.422-.891-.465-.911-.504-.927-.541-.944-.577-.958-.61-.971-.642-.983-1.017-1.493-1.445-2.015-1.531-2.034-1.602-2.041-1.656-2.034-1.692-2.015-1.712-1.985-1.715-1.94-1.7-1.885-1.67-1.814-1.221-1.308-.796-.845-.779-.819-.759-.794-.738-.767-.714-.737-.689-.706-.66-.674-.631-.641-.599-.605-.564-.567-.528-.53-.489-.489-.449-.447-.406-.403-.362-.359-.314-.312-.264-.263-.213-.213-.157-.159-.092-.096.038.114-.002-.008-2.094 2.019-.065-.037.05.034.112.086.163.131.211.173.257.213.3.25.343.286.383.319.421.351.459.38.494.409.528.434.56.459.59.481.619.502.646.52.673.537 1.052.833 1.477 1.152 1.551 1.186 1.61 1.205 1.658 1.209 1.691 1.198 1.713 1.173 1.722 1.133 1.718 1.078 1.701 1.009 1.67.923 1.225.629.803.385.789.356.774.325.757.293.741.257.722.221.703.181.685.141.668.097.652.05.641-.001.637-.061.647-.133.671-.228.705-.355.717-.506.66-.63.534-.68.402-.681.294-.677.213-.69.146-.721.086-.751.022-.376.001-.027.01-.447-.022-.846-.077-.815-.127-.785-.178-.757-.224-.729-.27-.701-.313-.674-.354-.649-.393-.624-.431-.6-.466-.577-.499-.554-.532-.532-.561-.512-.59-.49-.615-.471-.644-.454-1.005-.645-1.406-.797-1.473-.732-1.525-.673-1.564-.617-1.589-.567-1.6-.52-1.596-.48-1.58-.442-1.548-.41-1.503-.382-1.443-.358-1.369-.338-1.28-.324-1.177-.312-1.058-.304-.927-.301-.6-.226-.346-.148-.303-.147-.257-.145-.208-.14-.157-.13-.106-.112-.06-.077-.031-.017-.038.072-.091.156-.065.074.076-.105-.059.078.487-.626.936-1.229.902-1.225.868-1.218.834-1.212.802-1.207.768-1.2.741-1.203 1.047-1.787 1.278-2.347 1.153-2.32 1.032-2.29.912-2.261.797-2.23.683-2.198.575-2.167.467-2.134.365-2.102.265-2.068.167-2.035.075-2.002-.017-1.968-.103-1.933-.188-1.899-.269-1.865-.348-1.83-.422-1.794-.495-1.759-.564-1.723-.63-1.688-.693-1.651-.754-1.614-.811-1.577-.866-1.54-.917-1.502-.967-1.464-1.011-1.425-1.055-1.387-1.095-1.347-1.132-1.308-1.167-1.267-1.198-1.227-1.226-1.186-1.252-1.145-1.275-1.104-1.295-1.061-1.312-1.019-1.326-.975-1.338-.933-1.346-.888-1.352-.845-1.355-.799-1.355-.755-1.352-.709-1.346-.663-1.339-.617-1.327-.57-1.313-.523-1.297-.475-1.277-.427-1.255-.378-1.231-.33-1.204-.279-1.174-.23-1.143-.179-1.109-.127-1.075-.075-1.026-.022-.482.008-.017.001-1.131.045-2.223.146-2.189.219-2.153.289-2.118.359-2.082.427-2.045.494-2.007.56-1.971.625-1.931.687-1.892.75-1.853.812-1.812.87-1.77.93-1.728.987-1.685 1.043-1.639 1.097-1.593 1.15-1.545 1.201-1.495 1.25-1.443 1.297-1.39 1.341-1.336 1.384-1.278 1.422-1.221 1.459-1.161 1.494-1.102 1.525-1.04 1.555-.978 1.583-.915 1.608-.853 1.631-.789 1.654-.726 1.673-.661 1.693-.597 1.71-.532 1.725-.466 1.74-.401 1.753-.334 1.765-.268 1.775-.2 1.784-.132 1.792-.064 1.797.005 1.803.076 1.805.145 1.807.217 1.808.288 1.807.361 1.804.434 1.8.508 1.795.583 1.787.658 1.779.733 1.769.811 1.757.888 1.745.967 1.729 1.045 1.714 1.125 1.696 1.206 1.677 1.287 1.656 1.369 1.634 1.452 1.61 1.532 1.582.795.778c.296.289 1.01.048 1.594-.539.584-.588.818-1.299.522-1.588"/><path d="M154.761 231.45c-3.403 0-6.161-2.218-6.161-4.953 0-2.736 2.758-4.953 6.161-4.953 3.402 0 6.16 2.217 6.16 4.953 0 2.735-2.758 4.953-6.16 4.953z" fill="#5A2216"/><path d="M154.761 231.45c-3.403 0-6.161-2.218-6.161-4.953 0-2.736 2.758-4.953 6.161-4.953 3.402 0 6.16 2.217 6.16 4.953 0 2.735-2.758 4.953-6.16 4.953z" stroke="#F4AD67" stroke-width="2" stroke-linecap="round" stroke-linejoin="round" fill="none"/><path d="M99.313 231.45c-3.403 0-6.161-2.218-6.161-4.953 0-2.736 2.758-4.953 6.161-4.953 3.402 0 6.161 2.217 6.161 4.953 0 2.735-2.759 4.953-6.161 4.953z" fill="#5A2216"/><path d="M99.313 231.45c-3.403 0-6.161-2.218-6.161-4.953 0-2.736 2.758-4.953 6.161-4.953 3.402 0 6.161 2.217 6.161 4.953 0 2.735-2.759 4.953-6.161 4.953z" stroke="#F4AD67" stroke-width="2" stroke-linecap="round" stroke-linejoin="round" fill="none"/><path d="M93.997 224.83c-.326-.422.131-1.321 1.02-2.006.89-.685 1.875-.897 2.201-.474.325.423-.132 1.321-1.021 2.006-.89.685-1.875.897-2.2.474zM149.561 224.83c-.325-.422.132-1.321 1.021-2.006.89-.685 1.875-.897 2.201-.474.325.423-.132 1.321-1.021 2.006-.89.685-1.875.897-2.201.474z" fill="#FFF"/><path d="M145.313 240.632c-.522-5.286-.006.103-1.771 2.026-2.509 2.598-8.727-.006-11.514-2.988-2.628-2.969-5.301-2.193-5.981-1.818-.061.033-.03 4.141 0 4.189 1.522 2.432 4.487 4.246 9.419 4.651 5.852.481 10.009-1.568 9.823-6.089"/><path d="M106.599 240.632c.523-5.286.006.103 1.771 2.026 2.509 2.598 8.727-.006 11.514-2.988 2.628-2.969 5.482-2.193 6.163-1.818.06.033.03 4.141 0 4.189-1.523 2.432-4.669 4.246-9.601 4.651-5.852.481-10.009-1.568-9.823-6.089"/><g><path d="M158.317 213.442c6.358-.015 12.725.24 19.037 1.027 1.399 0 1.399 5.261-.019 5.566-2.088.869-3.123 2.623-3.123 2.623s-.69 1.448-2.435 8.158c-1.723 6.71-6.245 7.577-6.245 7.577s-5.56 1.159-11.806 1.159c-6.249 0-10.061-.288-14.239-2.042-4.159-1.753-5.901-6.42-5.901-6.42s-2.089-4.071-3.47-7.869c-.345-1.173-7.302-1.173-7.646 0-1.381 3.782-3.469 7.869-3.469 7.869s-1.743 4.667-5.903 6.42c-4.16 1.754-7.991 2.042-14.239 2.042-6.247 0-11.805-1.159-11.805-1.159s-4.522-1.173-6.247-7.609c-1.744-6.404-2.434-8.157-2.434-8.157s-1.035-1.753-3.123-2.623c-1.036-.29-1.036-5.245.344-5.535 11.115-1.448 32.309-1.754 47.584 1.754h6.593c7.252-1.633 14.688-2.343 22.106-2.643 2.146-.086 4.294-.092 6.44-.138zm-1.075 2.852c-1.809 0-3.869.058-6.297.177-13.856.677-16.09 3.14-16.445 3.88-.067.125-1.884 4.634 3.5 12.228 2.56 3.613 8.605 5.773 16.168 5.773 3.938 0 7.85-.635 10.456-1.695 5.691-2.316 6.515-8.439 6.498-11.885-.006-1.577-.637-4.066-1.562-5.256-1.548-1.988-4.147-3.222-12.318-3.222zm-61.574-.001c-8.169 0-10.769 1.232-12.318 3.222-.924 1.19-1.553 3.678-1.56 5.258-.016 3.445.808 9.57 6.498 11.884 2.608 1.062 6.519 1.695 10.461 1.695 7.56 0 13.605-2.16 16.166-5.774 5.378-7.591 3.559-12.1 3.537-12.141-.395-.826-2.632-3.289-16.485-3.967a129.593 129.593 0 0 0-6.299-.177z"/><path d="M158.317 213.442c6.358-.015 12.725.24 19.037 1.027 1.399 0 1.399 5.261-.019 5.566-2.088.869-3.123 2.623-3.123 2.623s-.69 1.448-2.435 8.158c-1.723 6.71-6.245 7.577-6.245 7.577s-5.56 1.159-11.806 1.159c-6.249 0-10.061-.288-14.239-2.042-4.159-1.753-5.901-6.42-5.901-6.42s-2.089-4.071-3.47-7.869c-.345-1.173-7.302-1.173-7.646 0-1.381 3.782-3.469 7.869-3.469 7.869s-1.743 4.667-5.903 6.42c-4.16 1.754-7.991 2.042-14.239 2.042-6.247 0-11.805-1.159-11.805-1.159s-4.522-1.173-6.247-7.609c-1.744-6.404-2.434-8.157-2.434-8.157s-1.035-1.753-3.123-2.623c-1.036-.29-1.036-5.245.344-5.535 11.115-1.448 32.309-1.754 47.584 1.754h6.593c7.252-1.633 14.688-2.343 22.106-2.643 2.146-.086 4.294-.092 6.44-.138zm-1.075 2.852c-1.809 0-3.869.058-6.297.177-13.856.677-16.09 3.14-16.445 3.88-.067.125-1.884 4.634 3.5 12.228 2.56 3.613 8.605 5.773 16.168 5.773 3.938 0 7.85-.635 10.456-1.695 5.691-2.316 6.515-8.439 6.498-11.885-.006-1.577-.637-4.066-1.562-5.256-1.548-1.988-4.147-3.222-12.318-3.222zm-61.574-.001c-8.169 0-10.769 1.232-12.318 3.222-.924 1.19-1.553 3.678-1.56 5.258-.016 3.445.808 9.57 6.498 11.884 2.608 1.062 6.519 1.695 10.461 1.695 7.56 0 13.605-2.16 16.166-5.774 5.378-7.591 3.559-12.1 3.537-12.141-.395-.826-2.632-3.289-16.485-3.967a129.593 129.593 0 0 0-6.299-.177z" stroke="#000" stroke-width="2" fill="none"/></g><g><path d="M91.511 250.643s10.319 3.69 33.996 3.414c23.678-.277 37.166-3.279 37.166-3.279 1.286.225 1.784 8.151 0 8.151 0 0-24.844 4.067-35.958 4.067-16.429 0-35.204-4.067-35.204-4.067-2.113-1.061-1.784-8.286 0-8.286z" fill="#5F5F5F"/><path d="M91.511 250.643s10.319 3.69 33.996 3.414c23.678-.277 37.166-3.279 37.166-3.279 1.286.225 1.784 8.151 0 8.151 0 0-24.844 4.067-35.958 4.067-16.429 0-35.204-4.067-35.204-4.067-2.113-1.061-1.784-8.286 0-8.286z" stroke="#000" stroke-width="2" stroke-linecap="round" stroke-linejoin="round" fill="none"/></g><g><path d="M94.106 250.632c-2.963-.738-5.877.716-6.508 3.249-.632 2.533 1.258 5.185 4.221 5.924 2.963.739 1.892-1.709 2.524-4.242.631-2.533 2.726-4.192-.237-4.931z" fill="#5F5F5F"/><path d="M94.106 250.632c-2.963-.738-5.877.716-6.508 3.249-.632 2.533 1.258 5.185 4.221 5.924 2.963.739 1.892-1.709 2.524-4.242.631-2.533 2.726-4.192-.237-4.931z" stroke="#000" stroke-width="2" fill="none"/></g><g><path d="M92.07 259.093c12.203 12.29 2.761 24.349 3.747 33.641.286 2.693 3.502 2.241 6.762 2.241 21.919 0-8.897-62.27-10.509-35.882" fill="#5F5F5F"/><path d="M91.36 259.797l.556.576 1.013 1.143.893 1.137.781 1.133.674 1.128.575 1.124.481 1.119.393 1.112.311 1.106.236 1.1.165 1.093.102 1.086.044 1.078-.009 1.072-.055 1.064-.096 1.058-.208 1.577-.369 2.076-.429 2.041-.446 2.011-.417 1.98-.265 1.466-.143.969-.108.954-.067.943-.019.93.035.916.04.46.003.024.035.243.129.479.203.423.269.353.329.289.381.229.427.176.466.13.499.092.527.059.551.033.57.014.879-.003 1.207-.02.606-.004h.002l.254-.003.513-.023.503-.047.489-.07.476-.094.463-.119.66-.22.843-.381.822-.498.779-.614.712-.718.617-.791.513-.835.415-.864.332-.891.259-.919.196-.95.137-.983.084-1.014.033-1.045-.014-1.075-.06-1.101-.103-1.126-.144-1.147-.183-1.166-.22-1.182-.255-1.194-.444-1.804-.697-2.42-.804-2.412-.895-2.374-.724-1.741-.503-1.135-.517-1.11-.53-1.082-.541-1.05-.549-1.015-.557-.977-.562-.936-.565-.89-.568-.842-.567-.791-.565-.735-.562-.677-.557-.615-.55-.55-.543-.482-.534-.41-.524-.335-.517-.257-.51-.175-.51-.086-.524.013-.562.136-.628.307-.662.522-.583.676-.445.735-.339.777-.209.635-.121.448-.105.461-.094.487-.082.513-.072.542-.06.57-.05.6-.021.315c-.024.363.31.461.746.219.436-.242.809-.733.833-1.096l.02-.296.047-.573.056-.538.067-.505.074-.47.083-.437.091-.401.093-.356.145-.462.193-.484.151-.305.075-.149.054-.097.142-.108.256-.086.342-.023.397.059.436.144.465.228.488.31.506.387.521.461.533.532.542.599.55.662.556.722.558.777.56.831.558.879.556.925.551.967.544 1.005.536 1.04.525 1.072.513 1.099.497 1.123.716 1.722.888 2.352.796 2.386.69 2.393.439 1.784.251 1.174.216 1.16.18 1.141.141 1.12.1 1.093.058 1.063.015 1.028-.03.989-.076.944-.122.895-.168.837-.212.772-.251.698-.281.615-.304.527-.322.447-.354.389-.417.356-.507.327-.623.293-.533.182-.377.099-.402.081-.424.063-.448.043-.476.022-.255.003h.002l-.615.004-1.194.02-.852.003-.536-.012-.507-.03-.473-.051-.436-.077-.396-.107-.352-.139-.307-.176-.26-.217-.211-.262-.162-.313-.111-.389-.035-.244.003.023-.037-.415-.035-.858.017-.875.062-.892.102-.91.135-.924.258-1.425.413-1.963.449-2.028.439-2.088.377-2.135.215-1.629.099-1.102.056-1.111.008-1.119-.047-1.126-.107-1.133-.174-1.138-.246-1.142-.324-1.147-.408-1.15-.497-1.153-.592-1.155-.693-1.158-.8-1.159-.912-1.16-1.028-1.158-.556-.576c-.192-.199-.666-.044-1.058.345-.392.388-.554.865-.362 1.063"/></g><g><path d="M76.403 205.519c0-25.953 22.77-40.952 50.857-40.952 28.088 0 50.858 14.999 50.858 40.952z" fill="#5F5F5F"/><path d="M76.403 205.519c0-25.953 22.77-40.952 50.857-40.952 28.088 0 50.858 14.999 50.858 40.952z" stroke="#000" stroke-width="2" stroke-linecap="round" stroke-linejoin="round" fill="none"/><g><path d="M76.197 196.266l101.921.144c1.842.241 2.555 9.109 0 9.109H76.197c-3.025-1.136-2.555-9.253 0-9.253z" fill="#5F5F5F"/><path d="M76.197 196.266l101.921.144c1.842.241 2.555 9.109 0 9.109H76.197c-3.025-1.136-2.555-9.253 0-9.253z" stroke="#000" stroke-width="2" stroke-linecap="round" stroke-linejoin="round" fill="none"/></g></g><g><path d="M298.244 258.081c14.583 12.722 7.788 28.852 10.693 39.873.842 3.195 3.917 2.103 7.13 1.548 21.599-3.732-21.725-73.474-17.823-41.421" fill="#56287B"/><path d="M297.547 258.798l.668.598 1.238 1.205 1.118 1.219 1.008 1.235.902 1.248.804 1.26.71 1.271.623 1.281.541 1.287.465 1.295.394 1.299.329 1.302.271 1.305.217 1.306.169 1.305.127 1.304.125 1.952.069 2.581.002 2.547-.021 2.504.001 2.45.044 1.796.06 1.176.091 1.154.13 1.13.172 1.107.222 1.08.132.535.004.015.086.287.219.533.277.453.329.367.379.286.423.211.463.142.497.08.524.026.546-.019.563-.054.575-.082.876-.155 1.19-.23.592-.108h.004l.25-.047.514-.118.507-.147.494-.177.48-.207.469-.239.457-.273.444-.308.428-.343.407-.374.381-.402.35-.423.317-.438.283-.45.356-.672.385-.936.294-.985.207-1.02.131-1.059.059-1.099-.006-1.138-.068-1.177-.127-1.214-.182-1.247-.236-1.277-.286-1.305-.333-1.33-.379-1.349-.421-1.367-.461-1.38-.498-1.389-.811-2.092-1.188-2.79-1.291-2.762-1.025-2.034-.705-1.332-.718-1.307-.731-1.278-.739-1.246-.746-1.211-.75-1.17-.752-1.128-.751-1.08-.747-1.029-.742-.975-.733-.916-.722-.854-.709-.787-.693-.718-.675-.645-.656-.567-.633-.487-.611-.402-.587-.315-.564-.223-.548-.126-.544-.019-.446.072-.342.114-.345.172-.364.246-.358.315-.318.359-.263.374-.209.375-.167.376-.136.384-.112.397-.09.416-.072.438-.056.464-.039.492-.022.522-.007.553.009.585.025.618.041.652.059.687.075.722.044.377c.038.325.421.352.856.061.435-.292.757-.791.719-1.117l-.043-.365-.074-.706-.056-.669-.041-.631-.024-.593-.009-.557.006-.52.02-.482.034-.445.048-.406.058-.367.068-.324.075-.28.077-.231.071-.177.054-.117.026-.059-.006-.014-.022-.001-.006-.014.036-.031.059-.035.196-.049h.381l.451.097.503.194.545.29.58.381.611.468.637.551.661.63.681.705.699.776.713.843.725.906.735.965.741 1.021.745 1.072.747 1.119.745 1.163.741 1.203.735 1.239.726 1.27.715 1.299.699 1.322 1.018 2.02 1.283 2.743 1.181 2.771.805 2.078.494 1.376.456 1.366.416 1.35.374 1.331.329 1.309.281 1.281.23 1.249.179 1.214.123 1.172.067 1.128.008 1.075-.053 1.019-.113.954-.173.879-.227.794-.282.714-.245.477-.165.273-.171.248-.178.225-.188.209-.204.197-.225.188-.251.182-.282.175-.314.165-.346.154-.38.139-.411.122-.451.105-.25.047.004-.001-.609.111-1.167.225-.83.148-.52.075-.493.05-.463.019-.432-.018-.401-.058-.37-.106-.339-.159-.307-.222-.272-.292-.236-.372-.197-.472-.086-.287.004.015-.126-.506-.215-1.044-.168-1.074-.126-1.101-.09-1.128-.059-1.15-.043-1.773-.002-2.441.021-2.513-.002-2.573-.071-2.616-.127-1.981-.13-1.33-.173-1.334-.223-1.335-.277-1.335-.338-1.333-.405-1.329-.476-1.325-.554-1.317-.637-1.308-.727-1.298-.82-1.285-.921-1.272-1.027-1.256-1.138-1.24-1.252-1.219-.668-.598c-.206-.185-.685-.014-1.07.382s-.531.866-.325 1.051"/><path d="M230.536 250.977c-34.344-33.041-11.022-84.683 36.526-86.194 20.279-.644 73.14 34.43 32.858 85.689-3.545 4.51 39.686 5.762 38.981 23.399-.656 16.399-43.97-18.046-44.312-18.046-.241 0 46.783 34.004 36.795 42.327-8.698 7.249-43.878-38.477-44.043-38.219-.426.664 31.482 49.029 21.093 54.828-10.389 5.798-31.723-51.688-31.723-52.171 0 0 18.696 60.023 9.273 59.902-16.309-.209-21.004-58.668-21.112-58.452-.241.483-2.089 58.211-14.41 58.211-14.89 0 2.572-60.869 2.572-61.11 0 0-20.213 53.62-31.565 51.204-11.813-2.514 23.35-52.654 22.867-52.654-.242 0-31.289 48.785-41.195 42.14-9.241-6.198 33.947-45.764 33.947-46.006 0-.241-36.408 32.104-34.421 12.895.725-7.006 25.118-17.227 27.869-16.903z" fill="#A84146"/><path d="M231.594 249.914l-.794-.778-1.519-1.568-1.433-1.59-1.351-1.613-1.27-1.635-1.188-1.654-1.109-1.671-1.029-1.689-.951-1.703-.873-1.716-.797-1.728-.72-1.737-.645-1.746-.57-1.753-.497-1.757-.424-1.761-.351-1.763-.281-1.762-.21-1.761-.141-1.758-.072-1.753-.004-1.745.063-1.738.129-1.727.193-1.715.258-1.702.321-1.686.383-1.669.444-1.65.504-1.629.563-1.607.621-1.582.677-1.557.732-1.529.787-1.5.84-1.471.892-1.437.943-1.405.994-1.372 1.044-1.336 1.092-1.301 1.142-1.265 1.19-1.228 1.24-1.191 1.288-1.152 1.338-1.114 1.387-1.075 1.437-1.033 1.487-.991 1.536-.948 1.586-.903 1.635-.855 1.684-.807 1.731-.755 1.779-.703 1.826-.648 1.87-.591 1.916-.533 1.959-.472 2.002-.409 2.043-.345 2.085-.279 2.124-.21 2.163-.141 1.089-.044-.018.001.481-.009.967.022 1.006.072 1.052.122 1.094.172 1.132.222 1.166.272 1.197.321 1.225.369 1.25.419 1.271.466 1.289.514 1.306.561 1.317.607 1.327.654 1.333.699 1.336.745 1.338.79 1.334.834 1.33.877 1.321.922 1.31.964 1.297 1.006 1.279 1.049 1.259 1.09 1.237 1.132 1.211 1.172 1.183 1.211 1.151 1.252 1.117 1.291 1.08 1.329 1.039 1.367.997 1.405.951 1.442.903 1.479.851 1.514.797 1.55.739 1.585.68 1.62.616 1.653.551 1.687.483 1.719.411 1.752.338 1.783.261 1.813.181 1.844.099 1.874.014 1.903-.073 1.93-.163 1.959-.256 1.985-.351 2.012-.448 2.038-.549 2.063-.652 2.088-.758 2.113-.865 2.137-.976 2.161-1.09 2.185-1.206 2.21-.978 1.664-.687 1.115-.724 1.129-.755 1.136-.787 1.142-.819 1.148-.851 1.155-.884 1.161-.449.574-.074.1-.074.105-.301.547-.161.59.024.444.132.333.197.27.25.237.298.218.344.206.39.2.434.195.477.193.52.191.559.192.599.191.635.193 1.016.292 1.468.399 1.582.413 1.679.431 1.76.453 1.824.478 1.873.507 1.903.54 1.919.575 1.917.616 1.899.658 1.865.705 1.812.755 1.745.809 1.251.642.803.445.779.462.75.477.72.493.687.509.652.525.615.542.577.559.536.576.492.594.448.611.401.628.353.646.302.664.25.681.196.699.14.716.085.733.026.75-.009.367.001-.033-.023.375-.086.631-.129.509-.158.389-.156.25-.117.111-.068.017-.08.014-.174.058-.297.085-.406.079-.493.05-.564.01-.621-.034-.671-.079-.715-.124-.753-.168-.789-.21-.82-.25-.85-.29-.876-.326-.9-.36-.922-.394-.941-.424-.959-.453-.974-.48-1.487-.767-2.015-1.098-2.038-1.17-2.047-1.225-2.038-1.267-2.015-1.291-1.976-1.301-1.921-1.294-1.849-1.273-1.331-.93-.856-.605-.831-.592-.801-.574-.772-.557-.738-.536-.705-.515-.667-.49-.63-.465-.589-.436-.547-.406-.503-.375-.456-.341-.409-.305-.358-.268-.307-.228-.253-.187-.198-.144-.143-.101-.094-.059-.086-.042c-.41-.163-1.156.22-1.667.854-.375.466-.531.958-.395 1.246l.003.006.153.176.135.108.189.146.248.19.306.232.361.274.415.315.466.355.514.393.561.429.606.465.647.499.686.531.723.563.758.593.79.621.82.649.847.674.873.699.895.723.915.743 1.406 1.154 1.923 1.602 1.961 1.664 1.979 1.716 1.98 1.755 1.96 1.786 1.921 1.803 1.864 1.811 1.787 1.807 1.691 1.793 1.192 1.326.754.874.721.864.683.852.643.84.601.825.556.808.51.791.459.771.408.75.354.726.296.701.238.672.176.641.114.605.049.563-.013.512-.071.451-.118.371-.144.272-.14.167-.129.097.003-.025.164-.136-.209.16-.189.089-.197.049-.314.054-.413.025-.488-.022-.548-.079-.595-.139-.636-.199-.671-.257-.703-.313-.731-.368-.757-.421-.78-.47-.803-.518-.822-.563-.84-.607-.857-.647-.872-.685-.886-.722-.897-.755-.908-.787-1.379-1.235-1.861-1.734-1.875-1.819-1.879-1.885-1.872-1.933-1.853-1.964-1.823-1.975-1.781-1.968-1.729-1.945-1.664-1.901-1.199-1.387-.774-.902-.751-.881-.728-.858-.702-.833-.676-.805-.647-.774-.618-.743-.588-.709-.555-.671-.521-.633-.487-.591-.45-.548-.412-.503-.373-.454-.333-.404-.29-.352-.248-.297-.203-.241-.158-.183-.114-.126-.08-.076-.208-.103c-.454-.104-1.205.335-1.676.982-.188.258-.311.522-.35.752l-.004.024.033.407.093.232.125.253.161.304.198.361.236.417.271.472.305.526.338.577.369.627.397.675.426.721.451.765.476.807.498.846.519.884.538.92.555.954.572.985.585 1.014.597 1.042.916 1.611 1.248 2.223 1.266 2.296 1.271 2.351 1.262 2.391 1.24 2.414 1.203 2.42 1.153 2.409 1.089 2.382 1.012 2.338.7 1.713.434 1.118.408 1.099.379 1.076.349 1.051.316 1.024.283.994.246.962.21.928.17.89.13.849.088.807.044.759v.708l-.044.651-.088.585-.126.508-.157.417-.166.305-.146.175-.102.064-.088.023.014-.03.151-.084-.246.124-.298.092-.306.035-.382-.009-.442-.07-.486-.142-.518-.217-.542-.292-.563-.364-.579-.435-.592-.504-.605-.568-.614-.631-.623-.69-.631-.747-.637-.8-.643-.851-.648-.899-.651-.945-.654-.986-.986-1.554-1.317-2.194-1.313-2.311-1.304-2.408-1.289-2.481-1.267-2.535-1.241-2.564-1.208-2.572-1.169-2.558-1.124-2.521-1.072-2.463-.768-1.796-.492-1.167-.477-1.14-.46-1.111-.442-1.078-.424-1.043-.405-1.005-.385-.964-.365-.92-.343-.875-.321-.825-.299-.773-.275-.719-.251-.661-.226-.601-.2-.538-.173-.472-.146-.404-.119-.332-.089-.257-.059-.178-.026-.089.01.035-2.337 1.718.003.011.027.086.053.17.077.251.1.329.124.404.145.477.165.548.184.614.203.679.22.741.236.8.252.856.265.91.278.96.29 1.009.301 1.053.31 1.097.319 1.136.327 1.172.501 1.823.686 2.535.696 2.632.699 2.709.692 2.763.678 2.795.654 2.806.622 2.793.581 2.759.533 2.703.361 1.975.221 1.287.205 1.261.186 1.232.166 1.199.147 1.164.125 1.125.102 1.084.079 1.04.055.992.029.942.003.886-.024.829-.052.765-.08.697-.106.621-.131.536-.149.435-.15.311-.115.151-.018-.034.102-.15.084-.106-.083-.026-.062-.011h.059l-.379-.016-.693-.089-.669-.164-.663-.238-.657-.313-.647-.385-.637-.455-.627-.523-.614-.59-.602-.653-.588-.713-.576-.772-.562-.827-.548-.88-.535-.929-.521-.977-.507-1.022-.494-1.063-.48-1.103-.467-1.139-.453-1.172-.439-1.204-.636-1.859-.801-2.561-.749-2.634-.7-2.688-.65-2.72-.603-2.73-.556-2.719-.511-2.686-.467-2.633-.425-2.556-.29-1.854-.181-1.201-.172-1.171-.161-1.138-.152-1.101-.142-1.061-.133-1.021-.124-.975-.114-.929-.106-.88-.097-.826-.089-.772-.08-.714-.072-.653-.064-.591-.056-.525-.048-.456-.04-.386-.034-.313-.026-.238-.019-.163-.016-.097-.063-.176c-.217-.363-.895-.216-1.512.329-.371.327-.653.741-.753 1.106l-.006.021-.045.257-.02.224-.021.276-.023.343-.026.412-.029.479-.033.546-.036.609-.041.671-.045.728-.049.785-.054.838-.059.889-.064.937-.07.982-.074 1.025-.081 1.066-.086 1.103-.093 1.138-.15 1.768-.224 2.455-.252 2.547-.282 2.618-.312 2.668-.345 2.698-.38 2.704-.415 2.691-.453 2.655-.491 2.599-.531 2.519-.424 1.82-.295 1.175-.307 1.147-.317 1.11-.327 1.071-.337 1.03-.347.984-.357.935-.365.882-.373.825-.379.763-.381.695-.382.622-.375.543-.363.457-.342.369-.316.283-.292.209-.283.155-.302.118-.343.087-.396.045-.187.001h.052l-.343-.011-.584-.082-.528-.157-.496-.231-.465-.305-.432-.379-.4-.451-.367-.522-.335-.591-.301-.658-.268-.722-.236-.784-.204-.842-.173-.899-.142-.951-.113-1.003-.084-1.05-.055-1.094-.03-1.136-.003-1.175.022-1.212.045-1.244.068-1.274.09-1.302.11-1.327.129-1.348.229-2.06.361-2.795.419-2.828.466-2.842.506-2.833.536-2.802.557-2.748.568-2.672.571-2.573.424-1.851.279-1.191.275-1.155.269-1.115.262-1.073.255-1.027.245-.978.236-.928.224-.873.211-.817.198-.758.184-.695.167-.63.151-.563.132-.492.113-.419.093-.344.072-.266.05-.187.029-.114.018-.086c.111-.583-.322-.813-.968-.515-.555.257-1.1.831-1.305 1.374l-.004.009-.028.075-.057.15-.085.221-.112.292-.139.358-.164.423-.19.486-.214.545-.238.601-.262.657-.284.709-.306.758-.327.805-.348.849-.367.892-.387.931-.405.968-.423 1.002-.441 1.035-.456 1.063-.473 1.091-.738 1.682-1.033 2.312-1.083 2.373-1.129 2.414-1.169 2.436-1.203 2.436-1.232 2.415-1.256 2.375-1.272 2.313-1.282 2.229-1.287 2.125-1.283 1.999-.95 1.392-.622.871-.623.835-.614.786-.605.735-.592.679-.577.622-.56.56-.541.497-.518.432-.494.367-.471.304-.45.243-.433.188-.425.134-.423.081-.428.027-.434-.034-.198-.039.04.009-.268-.068-.431-.169-.353-.22-.298-.274-.246-.329-.197-.382-.149-.436-.101-.489-.054-.542-.008-.595.039-.646.084-.695.128-.743.172-.787.213-.831.255-.871.293-.91.331-.945.367-.979.401-1.01.433-1.038.463-1.064.492-1.087.519-1.109.826-1.702 1.176-2.318 1.246-2.356 1.304-2.379 1.346-2.384 1.373-2.37 1.384-2.339 1.381-2.289 1.362-2.221.999-1.608.652-1.042.64-1.016.625-.986.608-.955.589-.921.568-.884.545-.847.522-.806.494-.763.467-.718.436-.671.405-.623.371-.571.336-.518.299-.463.261-.408.222-.35.183-.295.147-.245.119-.215.131-.289.029-.683c-.189-.357-.798-.267-1.4.207l-.011.009-.538.549-.181.247-.165.238-.193.282-.228.335-.263.39-.299.443-.334.495-.368.545-.402.593-.434.639-.465.682-.495.724-.523.762-.551.799-.578.833-.603.865-.627.894-.649.921-.672.945-.691.968-1.075 1.49-1.493 2.041-1.552 2.084-1.602 2.111-1.641 2.117-1.673 2.104-1.692 2.071-1.702 2.019-1.701 1.947-1.69 1.854-1.666 1.742-1.219 1.212-.794.757-.789.727-.774.683-.758.639-.739.593-.719.542-.696.491-.673.438-.647.384-.622.329-.594.272-.569.217-.544.161-.522.105-.5.048-.482-.011-.464-.072-.447-.137-.429-.207-.195-.123.026.017-.207-.151-.321-.308-.24-.335-.176-.369-.116-.403-.059-.437-.005-.471.047-.505.1-.542.151-.578.201-.614.252-.649.301-.685.349-.719.396-.75.442-.78.486-.808.527-.834.567-.858.605-.88.64-.9.674-.918 1.073-1.413 1.524-1.923 1.612-1.954 1.686-1.976 1.744-1.983 1.782-1.978 1.803-1.956 1.807-1.923 1.792-1.874 1.759-1.812 1.286-1.309.837-.845.822-.824.8-.8.779-.773.754-.745.727-.715.698-.684.667-.65.633-.616.599-.579.56-.541.52-.502.479-.46.435-.418.388-.373.342-.328.291-.282.242-.234.193-.19.151-.152.147-.157.321-.425c.401-.655.307-1.195-.21-1.205a.369.369 0 0 0-.047 0h-.006l-.843.343-.25.186-.195.157-.218.179-.253.21-.293.243-.331.276-.371.308-.408.338-.444.366-.478.394-.511.418-.543.442-.572.462-.6.483-.627.499-.65.515-1.021.8-1.43 1.102-1.495 1.128-1.548 1.14-1.586 1.136-1.611 1.116-1.621 1.082-1.617 1.032-1.597.966-1.563.884-1.132.596-.732.362-.724.338-.704.308-.684.275-.661.242-.637.206-.61.17-.583.132-.554.093-.523.052-.493.011-.461-.031-.429-.074-.396-.119-.363-.165-.331-.213-.296-.264-.261-.316-.225-.373-.187-.432-.147-.494-.105-.56-.06-.629-.013-.7.037-.774.037-.403-.004.036.022-.165.055-.257.127-.37.246-.482.316-.468.408-.503.512-.548.62-.59.722-.624.816-.647.899-.662.971-.67 1.033-.673 1.085-.67 1.126-.662 1.755-.977 2.391-1.241 1.785-.867 1.174-.545 1.158-.519 1.128-.486 1.088-.452 1.04-.414.983-.374.916-.331.841-.285.755-.236.5-.143.297-.077.274-.065.244-.052.213-.037.177-.023.138-.01.096.003.01.003c.498.042 1.247-.455 1.672-1.108.183-.282.284-.561.284-.787v-.839c0-.524-.531-.631-1.185-.238-.655.393-1.186 1.136-1.187 1.66v.841l1.956-1.896-.127-.008-.224.003-.242.021-.262.036-.282.051-.305.065-.326.078-.354.093-.566.162-.821.258-.897.305-.968.349-1.03.393-1.086.433-1.133.471-1.174.507-1.205.54-1.236.574-1.881.916-2.503 1.3-1.848 1.031-1.213.715-1.184.733-1.149.75-1.108.768-1.061.786-1.007.807-.948.831-.881.858-.802.891-.704.921-.577.936-.411.896-.2.645-.081.409-.022.165-.004.036-.042.478-.038.878.019.807.075.736.132.668.186.599.239.533.293.465.342.399.391.334.437.27.481.208.52.147.558.089.592.033.623-.02.651-.071.677-.117.701-.162.723-.204.741-.242.76-.28.776-.315.791-.346.803-.377.824-.409 1.247-.659 1.678-.951 1.696-1.027 1.703-1.088 1.696-1.133 1.676-1.163 1.644-1.178 1.599-1.178 1.54-1.162 1.465-1.129 1.044-.818.667-.528.642-.512.615-.494.585-.473.554-.452.522-.427.488-.401.451-.372.414-.343.373-.31.331-.275.285-.238.237-.196.182-.149.109-.09-.043.026-.738.272h.007l-.257-1.205.305-.4.022-.021-.093.094-.166.164-.229.222-.286.276-.339.326-.39.374-.437.42-.483.464-.525.507-.567.547-.605.586-.641.623-.676.659-.707.693-.737.725-.764.755-.79.784-.813.812-.833.836-.855.863-1.311 1.335-1.791 1.845-1.827 1.911-1.846 1.965-1.848 2.005-1.832 2.033-1.799 2.048-1.749 2.051-1.683 2.041-1.593 2.013-1.128 1.486-.72.982-.69.971-.657.958-.622.943-.585.928-.546.911-.503.893-.458.873-.412.852-.36.83-.307.805-.249.778-.188.748-.122.716-.054.678.019.636.094.592.171.542.249.49.328.435.395.37.207.151a.369.369 0 0 0 .025.017l.278.168.56.256.601.171.639.085.676.001.708-.081.736-.161.76-.235.779-.307.795-.372.807-.434.819-.491.828-.544.836-.594.845-.64.85-.684.858-.726.863-.764.869-.801.882-.843 1.324-1.319 1.765-1.847 1.77-1.945 1.769-2.026 1.759-2.087 1.74-2.131 1.713-2.156 1.678-2.164 1.632-2.151 1.579-2.121 1.514-2.07 1.088-1.508.702-.982.68-.959.659-.933.635-.906.61-.875.585-.843.557-.809.53-.77.5-.731.469-.69.438-.644.404-.597.37-.548.335-.496.297-.44.258-.382.217-.319.171-.251.117-.169.017-.03-.426.409.012-.009-1.4.207.038-.665.074-.144-.036.069-.105.176-.158.256-.208.328-.252.393-.294.456-.333.513-.37.57-.405.623-.438.673-.469.722-.498.768-.525.812-.55.853-.573.893-.594.929-.614.965-.631.996-.647 1.027-.662 1.056-1.013 1.632-1.381 2.251-1.401 2.323-1.406 2.377-1.398 2.413-1.373 2.433-1.333 2.435-1.28 2.419-1.207 2.382-.85 1.752-.539 1.152-.513 1.135-.485 1.115-.456 1.093-.423 1.069-.39 1.044-.355 1.015-.317.985-.277.954-.234.92-.191.883-.143.845-.093.805-.041.761.015.715.073.666.136.613.201.557.27.495.341.429.414.36.487.285.541.204.269.068a.471.471 0 0 0 .04.008l.337.055.655.031.686-.065.713-.162.732-.256.744-.344.747-.424.742-.496.735-.559.726-.615.717-.667.709-.716.702-.76.697-.804.693-.845.69-.885.686-.922.691-.968 1.025-1.507 1.351-2.107 1.339-2.214 1.325-2.304 1.306-2.376 1.283-2.429 1.256-2.462 1.223-2.476 1.185-2.471 1.144-2.445 1.096-2.401 1.042-2.335.744-1.696.478-1.102.461-1.074.445-1.044.427-1.012.409-.977.39-.94.371-.899.351-.858.33-.813.309-.765.287-.716.264-.663.241-.608.216-.551.192-.491.167-.429.141-.364.114-.297.087-.227.059-.154.03-.079.003-.01-2.273.858.012-.052-.021.083-.048.179-.071.265-.093.344-.114.422-.134.496-.151.567-.169.635-.185.7-.199.763-.213.823-.226.88-.237.934-.247.985-.256 1.035-.264 1.079-.271 1.124-.277 1.163-.281 1.202-.428 1.867-.576 2.594-.573 2.693-.561 2.772-.541 2.828-.51 2.862-.472 2.874-.424 2.864-.365 2.83-.231 2.086-.132 1.372-.112 1.351-.091 1.328-.069 1.303-.046 1.274-.022 1.243.003 1.209.031 1.172.058 1.133.088 1.092.118 1.046.15 1 .184.949.219.897.255.841.294.783.334.722.377.657.421.59.468.518.518.443.571.364.626.278.683.189.718.093.344.011a.45.45 0 0 0 .052 0l.386-.02.728-.121.752-.241.764-.365.752-.479.715-.571.662-.636.608-.686.56-.727.521-.767.487-.805.46-.847.438-.887.418-.929.4-.97.384-1.01.369-1.048.354-1.084.342-1.12.328-1.153.316-1.183.306-1.216.435-1.869.54-2.566.498-2.636.458-2.688.419-2.718.383-2.728.348-2.718.314-2.686.283-2.634.253-2.56.225-2.466.151-1.775.093-1.143.087-1.108.081-1.07.075-1.03.07-.986.064-.94.059-.892.054-.841.05-.787.045-.73.041-.671.036-.609.033-.544.029-.477.025-.406.022-.331.018-.249.013-.146-.018.047.006-.022-2.265 1.434-.056-.164.008.051.018.15.026.233.033.312.041.386.048.458.056.527.065.593.072.656.08.717.089.775.098.83.106.883.115.933.124.98.134 1.024.143 1.067.152 1.106.162 1.142.172 1.176.182 1.208.293 1.865.426 2.569.47 2.646.514 2.702.56 2.735.607 2.749.655 2.739.706 2.71.756 2.659.809 2.585.642 1.878.446 1.219.46 1.19.474 1.157.488 1.121.504 1.084.518 1.043.534 1 .549.954.566.906.582.855.598.801.616.745.634.686.653.623.673.56.693.491.715.421.739.347.765.269.793.186.802.098.381.015.059.001.369-.028.72-.187.807-.436.748-.643.553-.683.383-.65.278-.636.211-.651.162-.687.122-.73.087-.778.055-.829.025-.879-.004-.927-.03-.975-.057-1.02-.081-1.064-.105-1.105-.127-1.144-.148-1.179-.169-1.213-.188-1.244-.206-1.273-.223-1.299-.365-1.99-.535-2.717-.584-2.771-.625-2.804-.656-2.814-.679-2.803-.695-2.77-.7-2.715-.697-2.638-.687-2.539-.503-1.826-.327-1.175-.32-1.138-.311-1.098-.301-1.056-.29-1.01-.279-.962-.266-.911-.251-.858-.237-.802-.22-.742-.204-.68-.184-.616-.166-.549-.145-.478-.124-.406-.101-.33-.078-.252-.052-.171-.027-.087-.004-.011c-.127-.408-.698-.39-1.312.042-.65.456-1.108 1.207-1.024 1.676l.017.079.036.12.063.19.091.264.12.338.148.407.175.476.201.541.227.604.252.663.276.722.299.775.322.828.345.876.365.923.386.967.406 1.007.425 1.046.444 1.081.461 1.113.478 1.144.494 1.17.769 1.801 1.076 2.47 1.127 2.529 1.173 2.566 1.212 2.581 1.246 2.574 1.273 2.546 1.296 2.495 1.312 2.422 1.323 2.327 1.326 2.21.995 1.568.662.999.661.957.658.913.654.867.652.817.647.766.643.711.638.653.633.594.628.532.624.467.62.398.62.328.621.252.631.173.648.083.681-.021.729-.15.707-.269.246-.124c.05-.026.1-.054.151-.085l.485-.316.764-.643.631-.721.472-.724.339-.705.241-.698.165-.709.103-.73.048-.758-.003-.791-.049-.824-.095-.859-.137-.893-.178-.925-.216-.957-.254-.987-.289-1.016-.322-1.043-.355-1.067-.384-1.091-.413-1.112-.44-1.133-.707-1.73-1.019-2.354-1.096-2.395-1.158-2.421-1.209-2.43-1.243-2.422-1.266-2.398-1.275-2.358-1.269-2.301-1.25-2.227-.917-1.613-.599-1.044-.586-1.016-.572-.986-.556-.955-.538-.921-.52-.885-.498-.847-.476-.807-.451-.765-.426-.72-.397-.675-.368-.625-.336-.575-.304-.523-.268-.467-.231-.409-.192-.349-.151-.283-.104-.21-.049-.102-.021.208.005-.025-2.027 1.734-.187-.098.036.032.101.111.153.176.2.237.245.295.29.351.332.404.373.454.412.502.451.549.487.592.522.633.556.673.588.709.619.744.649.776.677.807.703.834.729.859.753.883.775.904 1.202 1.391 1.668 1.906 1.733 1.949 1.787 1.974 1.828 1.981 1.86 1.97 1.879 1.941 1.889 1.894 1.886 1.829 1.872 1.745 1.388 1.243.916.794.906.763.896.729.884.695.87.657.856.617.841.576.823.531.805.484.787.436.767.386.748.332.729.277.71.218.694.157.682.091.68.017.691-.07.721-.181.767-.329.703-.438.209-.16a4.07 4.07 0 0 0 .164-.136l.45-.425.643-.757.472-.758.313-.722.188-.688.09-.672.007-.669-.066-.677-.133-.69-.197-.706-.257-.724-.316-.742-.37-.76-.424-.777-.474-.795-.523-.81-.568-.826-.612-.84-.654-.852-.692-.864-.729-.874-.764-.885-1.205-1.34-1.703-1.805-1.797-1.818-1.873-1.82-1.93-1.811-1.967-1.792-1.986-1.761-1.986-1.721-1.966-1.668-1.927-1.605-1.409-1.157-.917-.745-.897-.724-.875-.7-.849-.676-.821-.65-.792-.623-.759-.594-.725-.564-.688-.532-.648-.5-.606-.466-.562-.43-.516-.393-.466-.355-.415-.315-.361-.274-.304-.232-.245-.187-.182-.14-.109-.086.04.078-.003-.006-2.062 2.1-.055-.029.062.039.133.093.194.141.251.185.306.228.358.267.408.305.457.342.504.375.548.407.59.437.631.466.67.491.706.516.74.538.773.558.804.576.833.593.86.607 1.335.934 1.856 1.276 1.927 1.3 1.984 1.306 2.024 1.297 2.05 1.273 2.06 1.234 2.054 1.178 2.032 1.107 1.5.773.987.487.973.459.957.432.94.401.922.369.901.335.879.298.855.261.831.22.806.178.78.134.756.086.733.035.715-.021.705-.085.71-.165.73-.27.762-.412.76-.577.672-.697.521-.731.374-.722.261-.72.173-.739.099-.759.023-.375.001-.033.009-.454-.035-.856-.098-.826-.161-.797-.219-.77-.275-.744-.33-.718-.38-.693-.43-.67-.476-.647-.52-.625-.563-.604-.603-.583-.641-.564-.676-.544-.711-.526-.742-.507-.771-.491-.799-.473-.827-.458-1.282-.657-1.776-.822-1.84-.766-1.889-.714-1.92-.666-1.935-.621-1.933-.58-1.916-.543-1.88-.509-1.829-.479-1.76-.453-1.675-.43-1.572-.411-1.454-.395-1.003-.287-.62-.189-.581-.185-.539-.184-.493-.182-.446-.179-.396-.177-.343-.174-.287-.169-.227-.16-.166-.145-.103-.116-.051-.059-.035.046-.095.184-.103.133.075-.105-.075.1.488-.626.936-1.229.901-1.225.868-1.218.835-1.212.801-1.207.768-1.2.741-1.203 1.047-1.787 1.278-2.348 1.154-2.319 1.031-2.29.912-2.261.797-2.23.684-2.198.574-2.167.468-2.134.364-2.102.265-2.068.168-2.036.074-2.001-.016-1.968-.104-1.933-.188-1.899-.269-1.865-.347-1.83-.423-1.794-.495-1.759-.563-1.723-.631-1.688-.693-1.651-.754-1.614-.811-1.577-.866-1.54-.917-1.502-.966-1.464-1.012-1.425-1.055-1.387-1.095-1.347-1.132-1.308-1.166-1.267-1.198-1.227-1.227-1.187-1.252-1.145-1.275-1.103-1.295-1.061-1.312-1.019-1.326-.975-1.338-.933-1.346-.888-1.352-.845-1.355-.799-1.355-.755-1.352-.709-1.346-.663-1.338-.617-1.327-.57-1.314-.523-1.296-.475-1.277-.427-1.256-.378-1.231-.33-1.203-.279-1.175-.23-1.143-.179-1.109-.127-1.074-.075-1.027-.022-.482.008-.017.001-1.131.045-2.223.146-2.188.218-2.154.29-2.118.359-2.081.427-2.045.494-2.008.56-1.97.624-1.932.688-1.892.75-1.853.812-1.812.87-1.77.93-1.728.987-1.684 1.043-1.64 1.097-1.592 1.15-1.545 1.201-1.495 1.25-1.444 1.297-1.39 1.341-1.335 1.384-1.279 1.422-1.221 1.459-1.161 1.494-1.101 1.525-1.04 1.555-.978 1.583-.916 1.608-.853 1.631-.789 1.654-.725 1.673-.662 1.693-.596 1.71-.532 1.725-.467 1.74-.4 1.753-.335 1.765-.267 1.775-.201 1.784-.132 1.792-.064 1.797.006 1.803.075 1.805.146 1.807.216 1.808.289 1.807.361 1.804.434 1.8.508 1.794.582 1.788.658 1.779.734 1.769.81 1.757.889 1.745.966 1.729 1.045 1.714 1.126 1.696 1.205 1.677 1.287 1.656 1.369 1.633 1.452 1.61 1.533 1.583.794.778c.297.289 1.01.048 1.594-.539.585-.588.818-1.299.522-1.588"/><path d="M292.145 230.691c-3.403 0-6.161-2.218-6.161-4.953 0-2.736 2.758-4.953 6.161-4.953 3.402 0 6.161 2.217 6.161 4.953 0 2.735-2.759 4.953-6.161 4.953z" fill="#5A2216"/><path d="M292.145 230.691c-3.403 0-6.161-2.218-6.161-4.953 0-2.736 2.758-4.953 6.161-4.953 3.402 0 6.161 2.217 6.161 4.953 0 2.735-2.759 4.953-6.161 4.953z" stroke="#F4AD67" stroke-width="2" stroke-linecap="round" stroke-linejoin="round" fill="none"/><path d="M236.697 230.691c-3.402 0-6.161-2.218-6.161-4.953 0-2.736 2.759-4.953 6.161-4.953 3.403 0 6.161 2.217 6.161 4.953 0 2.735-2.758 4.953-6.161 4.953z" fill="#5A2216"/><path d="M236.697 230.691c-3.402 0-6.161-2.218-6.161-4.953 0-2.736 2.759-4.953 6.161-4.953 3.403 0 6.161 2.217 6.161 4.953 0 2.735-2.758 4.953-6.161 4.953z" stroke="#F4AD67" stroke-width="2" stroke-linecap="round" stroke-linejoin="round" fill="none"/><path d="M231.381 224.071c-.326-.422.131-1.321 1.021-2.006.889-.685 1.874-.897 2.2-.474.326.423-.131 1.321-1.021 2.006-.889.685-1.874.897-2.2.474zM286.946 224.071c-.326-.422.131-1.321 1.021-2.006.889-.685 1.874-.897 2.2-.474.326.423-.131 1.321-1.021 2.006-.889.685-1.874.897-2.2.474z" fill="#FFF"/><path d="M295.702 212.683c6.358-.015 12.724.24 19.036 1.027 1.399 0 1.399 5.261-.018 5.566-2.089.869-3.124 2.623-3.124 2.623s-.689 1.448-2.434 8.157c-1.723 6.711-6.246 7.578-6.246 7.578s-5.559 1.159-11.805 1.159c-6.249 0-10.062-.288-14.24-2.042-4.159-1.754-5.901-6.42-5.901-6.42s-2.089-4.071-3.469-7.869c-.346-1.173-7.302-1.173-7.647 0-1.38 3.782-3.469 7.869-3.469 7.869s-1.743 4.666-5.903 6.42c-4.159 1.754-7.991 2.042-14.238 2.042s-11.805-1.159-11.805-1.159-4.523-1.173-6.248-7.609c-1.744-6.404-2.434-8.157-2.434-8.157s-1.035-1.753-3.123-2.623c-1.035-.29-1.035-5.245.344-5.535 11.115-1.448 32.31-1.754 47.584 1.754h6.593c7.253-1.633 14.688-2.343 22.107-2.643 2.145-.087 4.293-.092 6.44-.138zm-1.075 2.852c-1.809 0-3.87.058-6.298.177-13.856.677-16.089 3.14-16.444 3.88-.067.125-1.885 4.634 3.5 12.228 2.56 3.613 8.604 5.773 16.167 5.773 3.939 0 7.85-.635 10.457-1.695 5.691-2.316 6.515-8.439 6.498-11.885-.006-1.577-.638-4.066-1.563-5.256-1.547-1.988-4.147-3.222-12.317-3.222zm-61.575-.001c-8.169 0-10.769 1.232-12.317 3.222-.925 1.19-1.554 3.678-1.561 5.258-.016 3.445.808 9.57 6.499 11.884 2.607 1.062 6.519 1.695 10.46 1.695 7.561 0 13.605-2.16 16.166-5.774 5.379-7.591 3.56-12.1 3.538-12.141-.396-.826-2.633-3.289-16.485-3.967-2.429-.119-4.49-.177-6.3-.177z"/><path d="M295.702 212.683c6.358-.015 12.724.24 19.036 1.027 1.399 0 1.399 5.261-.018 5.566-2.089.869-3.124 2.623-3.124 2.623s-.689 1.448-2.434 8.157c-1.723 6.711-6.246 7.578-6.246 7.578s-5.559 1.159-11.805 1.159c-6.249 0-10.062-.288-14.24-2.042-4.159-1.754-5.901-6.42-5.901-6.42s-2.089-4.071-3.469-7.869c-.346-1.173-7.302-1.173-7.647 0-1.38 3.782-3.469 7.869-3.469 7.869s-1.743 4.666-5.903 6.42c-4.159 1.754-7.991 2.042-14.238 2.042s-11.805-1.159-11.805-1.159-4.523-1.173-6.248-7.609c-1.744-6.404-2.434-8.157-2.434-8.157s-1.035-1.753-3.123-2.623c-1.035-.29-1.035-5.245.344-5.535 11.115-1.448 32.31-1.754 47.584 1.754h6.593c7.253-1.633 14.688-2.343 22.107-2.643 2.145-.087 4.293-.092 6.44-.138zm-1.075 2.852c-1.809 0-3.87.058-6.298.177-13.856.677-16.089 3.14-16.444 3.88-.067.125-1.885 4.634 3.5 12.228 2.56 3.613 8.604 5.773 16.167 5.773 3.939 0 7.85-.635 10.457-1.695 5.691-2.316 6.515-8.439 6.498-11.885-.006-1.577-.638-4.066-1.563-5.256-1.547-1.988-4.147-3.222-12.317-3.222zm-61.575-.001c-8.169 0-10.769 1.232-12.317 3.222-.925 1.19-1.554 3.678-1.561 5.258-.016 3.445.808 9.57 6.499 11.884 2.607 1.062 6.519 1.695 10.46 1.695 7.561 0 13.605-2.16 16.166-5.774 5.379-7.591 3.56-12.1 3.538-12.141-.396-.826-2.633-3.289-16.485-3.967-2.429-.119-4.49-.177-6.3-.177z" stroke="#000" stroke-width="2" fill="none"/><path d="M300.314 249.884s-10.319 3.69-33.996 3.413c-23.678-.276-38.105-3.616-38.105-3.616-1.287.226-1.784 8.207 0 8.207 0 0 25.783 4.349 36.896 4.349 16.43 0 35.205-4.067 35.205-4.067 2.113-1.062 1.784-8.286 0-8.286z" fill="#56287B"/><path d="M300.314 249.884s-10.319 3.69-33.996 3.413c-23.678-.276-38.105-3.616-38.105-3.616-1.287.226-1.784 8.207 0 8.207 0 0 25.783 4.349 36.896 4.349 16.43 0 35.205-4.067 35.205-4.067 2.113-1.062 1.784-8.286 0-8.286z" stroke="#000" stroke-width="2" stroke-linecap="round" stroke-linejoin="round" fill="none"/><g><path d="M297.719 249.873c2.963-.739 5.877.716 6.508 3.249.632 2.533-1.258 5.185-4.221 5.924-2.963.739-1.892-1.709-2.524-4.242-.631-2.533-2.727-4.192.237-4.931z" fill="#56287B"/><path d="M297.719 249.873c2.963-.739 5.877.716 6.508 3.249.632 2.533-1.258 5.185-4.221 5.924-2.963.739-1.892-1.709-2.524-4.242-.631-2.533-2.727-4.192.237-4.931z" stroke="#000" stroke-width="2" fill="none"/></g><g><path d="M299.755 258.334c-12.203 12.289-2.761 24.349-3.747 33.641-.286 2.693-3.502 2.241-6.763 2.241-21.918 0 8.898-62.271 10.51-35.882" fill="#56287B"/><path d="M299.377 258.005l-.556.576-1.078 1.212-.976 1.237-.857 1.237-.741 1.232-.631 1.225-.526 1.213-.427 1.2-.337 1.186-.253 1.172-.178 1.159-.109 1.145-.047 1.133.008 1.121.056 1.108.099 1.097.213 1.621.376 2.122.436 2.076.449 2.024.414 1.968.259 1.434.137.934.103.919.063.899.017.879-.035.857-.037.41.005-.035-.036.243-.1.34-.106.174-.064.03-.025-.029-.09.02-.213.07-.32.081-.398.068-.455.049-.499.029-.534.012-.852-.003-1.194-.02-.614-.004h.001l-.254-.003-.478-.022-.454-.043-.436-.064-.418-.085-.401-.104-.573-.194-.704-.325-.635-.397-.571-.466-.51-.533-.45-.597-.393-.657-.336-.715-.281-.77-.227-.821-.176-.869-.126-.915-.077-.956-.031-.994.015-1.029.059-1.06.1-1.088.14-1.113.178-1.133.215-1.151.249-1.165.436-1.77.685-2.374.788-2.361.878-2.325.706-1.698.49-1.103.505-1.083.517-1.054.526-1.021.533-.984.538-.944.541-.9.541-.851.539-.798.533-.742.524-.68.512-.614.495-.543.473-.469.446-.391.414-.312.381-.234.351-.164.33-.099.32-.039.319.025.321.098.32.182.311.277.297.379.276.487.251.601.168.523.102.385.094.418.086.45.077.48.067.513.058.544.047.576.02.298c.022.335.393.381.829.102.436-.28.772-.778.75-1.114l-.021-.312-.049-.596-.06-.565-.071-.534-.08-.504-.091-.473-.101-.445-.112-.418-.186-.573-.281-.662-.321-.553-.361-.446-.404-.34-.45-.234-.497-.125-.546-.01-.588.107-.617.219-.63.321-.631.41-.626.486-.617.553-.611.613-.604.67-.601.725-.596.777-.592.826-.589.874-.583.919-.576.961-.57 1-.56 1.036-.551 1.069-.538 1.099-.525 1.127-.511 1.154-.734 1.767-.904 2.4-.812 2.436-.703 2.44-.446 1.818-.257 1.203-.222 1.191-.184 1.174-.145 1.154-.103 1.13-.06 1.104-.014 1.074.033 1.04.082 1.003.134.963.188.918.243.87.301.819.362.763.424.705.489.641.555.575.625.504.695.429.763.349.619.207.44.113.458.092.478.069.497.046.511.023.255.003h.001l.606.004 1.206.02.881.003.572-.014.559-.034.545-.062.538-.1.541-.156.565-.246.598-.385.564-.534.417-.585.258-.562.14-.529.035-.243.004-.035.041-.466.034-.917-.018-.926-.066-.936-.107-.946-.141-.959-.264-1.455-.415-1.976-.447-2.016-.432-2.052-.37-2.088-.21-1.586-.096-1.063-.055-1.066-.009-1.07.043-1.073.1-1.072.162-1.073.228-1.07.299-1.067.373-1.062.453-1.059.536-1.054.626-1.054.724-1.055.828-1.06.964-1.089.556-.576c.384-.397.525-.866.317-1.048-.209-.181-.689-.007-1.073.39"/></g><g><path d="M213.787 204.76c0-25.953 22.77-40.952 50.858-40.952 28.088 0 50.857 14.999 50.857 40.952z" fill="#56287B"/><path d="M213.787 204.76c0-25.953 22.77-40.952 50.858-40.952 28.088 0 50.857 14.999 50.857 40.952z" stroke="#000" stroke-width="2" stroke-linecap="round" stroke-linejoin="round" fill="none"/><g><path d="M213.582 195.507l101.92.144c1.843.241 2.555 9.109 0 9.109h-101.92c-3.026-1.136-2.555-9.253 0-9.253z" fill="#56287B"/><path d="M213.582 195.507l101.92.144c1.843.241 2.555 9.109 0 9.109h-101.92c-3.026-1.136-2.555-9.253 0-9.253z" stroke="#000" stroke-width="2" stroke-linecap="round" stroke-linejoin="round" fill="none"/></g></g><g stroke="#000" stroke-linecap="round" stroke-linejoin="round" fill="none"><path d="M228.949 224.651c-3.091.413-4.982-1.75-6.281-4.349M230.038 222.321c-3.091.414-4.982-1.75-6.281-4.349"/></g><g stroke="#000" stroke-linecap="round" stroke-linejoin="round" fill="none"><path d="M300.187 224.651c3.091.413 4.982-1.75 6.281-4.349M299.098 222.321c3.091.414 4.982-1.75 6.281-4.349"/></g><g><path d="M276.098 243.881c-3.406-4.495-8.485-1.383-10.874-1.383-1.207 0-9.14-2.338-10.391 1.383-1.551 4.613 16.972 6.127 21.265 0" fill="#C65D62"/><path d="M276.098 243.881c-3.406-4.495-8.485-1.383-10.874-1.383-1.207 0-9.14-2.338-10.391 1.383-1.551 4.613 16.972 6.127 21.265 0M259.289 244.419c1.601 1.479 10.751 1.087 12.261-.393" stroke="#000" stroke-linecap="round" stroke-linejoin="round" fill="none"/></g></g><g fill="#2B5584"><path d="M288.644 163.004c-1.814.208-3.598-2.358-3.985-5.732s.407-9.431 2.221-9.639c1.814-.208 3.96 5.511 4.348 8.885.387 3.374-.77 6.277-2.584 6.486zM261.102 121.16c-1.814.208-3.598-2.358-3.985-5.732-.388-3.374.407-9.431 2.221-9.639 1.814-.208 3.96 5.511 4.347 8.885.388 3.374-.769 6.278-2.583 6.486zM221.389 129.939c-1.814.209-3.598-2.358-3.985-5.732-.388-3.373.407-9.43 2.221-9.638 1.814-.209 3.96 5.511 4.347 8.885.388 3.373-.769 6.277-2.583 6.485zM237.64 102.289c-1.814.209-3.599-2.358-3.986-5.732-.387-3.373.408-9.43 2.222-9.638 1.814-.209 3.96 5.511 4.347 8.885.387 3.373-.769 6.277-2.583 6.485zM242.178 143.949c-1.814.208-3.598-2.358-3.986-5.732-.387-3.374.408-9.431 2.222-9.639 1.814-.208 3.96 5.511 4.347 8.885.387 3.374-.769 6.278-2.583 6.486zM284.097 135.958c-1.814.208-3.598-2.358-3.985-5.732s.407-9.431 2.221-9.639c1.814-.208 3.96 5.511 4.347 8.885.388 3.374-.769 6.277-2.583 6.486zM166.85 100.164c-1.814.208-3.598-2.358-3.985-5.732-.388-3.374.407-9.43 2.221-9.639 1.814-.208 3.96 5.511 4.347 8.885.388 3.374-.769 6.278-2.583 6.486zM125.624 112.083c-1.814.208-3.598-2.358-3.985-5.732s.407-9.431 2.221-9.639c1.814-.208 3.96 5.511 4.348 8.885.387 3.374-.77 6.278-2.584 6.486zM143.991 86.549c-1.814.208-3.598-2.358-3.986-5.732-.387-3.374.408-9.431 2.222-9.639 1.814-.208 3.96 5.511 4.347 8.885.387 3.374-.769 6.278-2.583 6.486zM148.529 126.093c-1.814.208-3.598-2.359-3.986-5.732-.387-3.374.408-9.431 2.222-9.639 1.814-.208 3.96 5.511 4.347 8.885.387 3.374-.769 6.277-2.583 6.486zM209.373 99.544c-1.814.208-3.599-2.358-3.986-5.732s.408-9.431 2.222-9.639c1.813-.208 3.96 5.511 4.347 8.885.387 3.374-.77 6.277-2.583 6.486zM185.91 80.673c-1.814.208-3.598-2.358-3.985-5.732-.388-3.374.407-9.43 2.221-9.639 1.814-.208 3.96 5.511 4.347 8.885.388 3.374-.769 6.278-2.583 6.486zM190.448 120.217c-1.814.208-3.598-2.358-3.985-5.732s.407-9.431 2.221-9.639c1.814-.208 3.96 5.511 4.348 8.885.387 3.374-.77 6.278-2.584 6.486zM79.805 141.966c-1.814.208-3.598-2.358-3.986-5.732-.387-3.374.408-9.431 2.222-9.639 1.814-.208 3.96 5.511 4.347 8.885.387 3.374-.769 6.278-2.583 6.486zM302.048 150.343c-1.814.208-3.598-2.358-3.985-5.732s.407-9.431 2.221-9.639c1.814-.208 3.96 5.511 4.348 8.885.387 3.374-.77 6.278-2.584 6.486zM121.724 136.09c-1.814.208-3.598-2.358-3.985-5.732s.407-9.43 2.221-9.639c1.814-.208 3.96 5.511 4.347 8.885.388 3.374-.769 6.278-2.583 6.486zM105.667 121.451c-1.814.209-3.598-2.358-3.985-5.732-.388-3.374.407-9.43 2.221-9.639 1.814-.208 3.96 5.512 4.347 8.886.388 3.373-.769 6.277-2.583 6.485zM98.921 147.75c-1.814.208-3.598-2.358-3.986-5.732-.387-3.374.408-9.431 2.222-9.639 1.814-.208 3.96 5.511 4.347 8.885.387 3.374-.769 6.278-2.583 6.486zM170.453 131.563c-1.813.208-3.598-2.358-3.985-5.732s.408-9.431 2.221-9.639c1.814-.208 3.961 5.511 4.348 8.885.387 3.374-.77 6.278-2.584 6.486zM72.085 193.78c-1.814.208-3.598-2.358-3.985-5.732-.388-3.374.407-9.431 2.221-9.639 1.814-.208 3.96 5.511 4.347 8.885.387 3.374-.769 6.278-2.583 6.486zM87.665 173.096c-1.814.208-3.598-2.358-3.986-5.732-.387-3.374.408-9.431 2.222-9.639 1.814-.208 3.96 5.511 4.347 8.885.387 3.374-.769 6.278-2.583 6.486zM55.758 178.392c-1.814.208-3.598-2.358-3.985-5.732s.407-9.431 2.221-9.639c1.814-.208 3.96 5.511 4.348 8.885.387 3.374-.77 6.278-2.584 6.486zM115.353 159.705c-1.814.208-3.598-2.358-3.985-5.732s.407-9.43 2.221-9.639c1.814-.208 3.96 5.512 4.347 8.885.388 3.374-.769 6.278-2.583 6.486zM266.686 152.717c-1.814.208-3.598-2.358-3.985-5.732s.407-9.431 2.221-9.639c1.814-.208 3.96 5.511 4.348 8.885.387 3.374-.77 6.278-2.584 6.486zM209.373 169.643c-1.814.209-3.599-2.358-3.986-5.732-.387-3.373.408-9.43 2.222-9.638 1.813-.209 3.96 5.511 4.347 8.885.387 3.373-.77 6.277-2.583 6.485zM206.194 142.187c-1.814.208-3.598-2.358-3.986-5.732-.387-3.374.408-9.431 2.222-9.639 1.814-.208 3.96 5.511 4.347 8.885.387 3.374-.769 6.278-2.583 6.486zM135.049 149.866c-1.814.208-3.599-2.358-3.986-5.732s.408-9.431 2.222-9.639c1.814-.208 3.96 5.511 4.347 8.885.387 3.374-.769 6.278-2.583 6.486z"/><g><path d="M177.332 166.936c-1.814.208-3.598-2.359-3.985-5.732-.387-3.374.407-9.431 2.221-9.639 1.814-.208 3.96 5.511 4.348 8.885.387 3.374-.77 6.277-2.584 6.486zM156.589 157.552c-1.814.208-3.598-2.358-3.986-5.732-.387-3.374.408-9.431 2.222-9.639 1.814-.208 3.96 5.511 4.347 8.885.387 3.374-.769 6.278-2.583 6.486zM227.26 165.257c-1.814.208-3.598-2.358-3.985-5.732-.388-3.374.407-9.431 2.221-9.639 1.814-.208 3.96 5.511 4.347 8.885.388 3.374-.769 6.278-2.583 6.486z"/></g><path d="M192.916 157.589c-1.814.209-3.598-2.358-3.985-5.732-.388-3.373.407-9.43 2.221-9.638 1.814-.209 3.96 5.511 4.347 8.885.388 3.374-.769 6.277-2.583 6.485zM67.732 159.705c-1.814.208-3.599-2.358-3.986-5.732s.408-9.43 2.222-9.639c1.814-.208 3.96 5.512 4.347 8.885.387 3.374-.769 6.278-2.583 6.486zM192.916 185.032c-1.814.208-3.598-2.358-3.985-5.732-.388-3.374.407-9.431 2.221-9.639 1.814-.208 3.96 5.511 4.347 8.885.388 3.374-.769 6.277-2.583 6.486zM308.788 169.643c-1.814.209-3.599-2.358-3.986-5.732-.387-3.373.408-9.43 2.222-9.638 1.813-.209 3.96 5.511 4.347 8.885.387 3.373-.77 6.277-2.583 6.485zM189.542 208.843c-1.814.209-3.599-2.358-3.986-5.732-.387-3.373.408-9.43 2.222-9.638 1.814-.209 3.96 5.511 4.347 8.885.387 3.373-.77 6.277-2.583 6.485zM204.368 202.596c-1.814.208-3.598-2.358-3.985-5.732-.388-3.374.407-9.431 2.221-9.639 1.814-.208 3.96 5.511 4.347 8.885.388 3.374-.769 6.278-2.583 6.486zM318.971 188.484c-1.814.208-3.599-2.358-3.986-5.732s.408-9.431 2.222-9.639c1.814-.208 3.96 5.511 4.347 8.885.387 3.374-.77 6.278-2.583 6.486zM56.761 205.77c-1.814.208-3.598-2.359-3.986-5.732-.387-3.374.408-9.431 2.222-9.639 1.814-.208 3.96 5.511 4.347 8.885.387 3.374-.769 6.277-2.583 6.486z"/></g></svg>